<?xml version="1.0" encoding="UTF-8"?>
<!DOCTYPE svg PUBLIC "-//W3C//DTD SVG 1.1//EN" "http://www.w3.org/Graphics/SVG/1.1/DTD/svg11.dtd">
<svg xmlns="http://www.w3.org/2000/svg" version="1.1" width="300px" height="182px" style="shape-rendering:geometricPrecision; text-rendering:geometricPrecision; image-rendering:optimizeQuality; fill-rule:evenodd; clip-rule:evenodd" xmlns:xlink="http://www.w3.org/1999/xlink">
<g><path style="opacity:0.011" fill="#fdfcfc" d="M 92.5,-0.5 C 93.1667,-0.5 93.8333,-0.5 94.5,-0.5C 93.8333,2.16667 93.1667,2.16667 92.5,-0.5 Z"/></g>
<g><path style="opacity:0.006" fill="#fdfdfd" d="M 165.5,1.5 C 166.497,0.287488 167.497,0.454154 168.5,2C 167.906,2.46434 167.239,2.63101 166.5,2.5C 166.5,1.83333 166.167,1.5 165.5,1.5 Z"/></g>
<g><path style="opacity:1" fill="#292c16" d="M 156.5,0.5 C 158.017,0.510559 159.184,1.17723 160,2.5C 161.106,6.12206 161.439,9.78873 161,13.5C 160.692,12.6919 160.192,12.0253 159.5,11.5C 157.155,21.4546 159.488,30.1212 166.5,37.5C 167.614,38.7759 168.614,38.7759 169.5,37.5C 176.629,41.4307 180.462,47.4307 181,55.5C 178.948,53.9415 176.781,52.6082 174.5,51.5C 171.32,50.9823 168.987,49.3157 167.5,46.5C 165.746,39.005 161.912,32.6717 156,27.5C 155.722,23.8061 155.722,20.1394 156,16.5C 154.989,15.6634 153.822,15.33 152.5,15.5C 152.066,19.2766 150.066,21.9433 146.5,23.5C 145.544,24.8651 144.878,26.3651 144.5,28C 144.924,30.8539 145.257,33.6873 145.5,36.5C 148.154,32.1993 149.988,27.8659 151,23.5C 151.147,29.7466 149.647,35.58 146.5,41C 146.639,42.301 147.305,43.1344 148.5,43.5C 149.428,47.9001 148.428,51.9001 145.5,55.5C 146.689,56.4287 148.022,56.762 149.5,56.5C 149.216,59.7766 149.549,62.9433 150.5,66C 149.451,66.4922 148.451,66.3256 147.5,65.5C 146.5,66.8333 145.5,68.1667 144.5,69.5C 142.426,68.0062 140.26,66.6729 138,65.5C 137.667,63.1667 137.333,60.8333 137,58.5C 136.667,59.8333 136.333,61.1667 136,62.5C 134.815,60.1304 133.649,57.7971 132.5,55.5C 132.925,53.6195 133.925,52.1195 135.5,51C 134.454,46.8899 133.787,42.7232 133.5,38.5C 134.675,38.719 135.675,38.3857 136.5,37.5C 136.112,35.6918 136.112,34.0252 136.5,32.5C 133.287,32.7218 131.454,34.3885 131,37.5C 129.795,38.0712 128.628,38.7379 127.5,39.5C 128.48,40.9814 129.647,42.3147 131,43.5C 131.667,44.5 131.667,45.5 131,46.5C 129.907,44.6508 128.574,42.9842 127,41.5C 126.333,43.1667 126.333,44.8333 127,46.5C 129.167,48 131.333,49.5 133.5,51C 131.744,51.1405 130.078,50.6405 128.5,49.5C 127.822,54.1807 125.155,56.1807 120.5,55.5C 120.5,56.5 120.5,57.5 120.5,58.5C 123.254,58.7845 125.92,59.4512 128.5,60.5C 126.865,61.6808 125.198,61.6808 123.5,60.5C 123.167,61.1667 122.833,61.8333 122.5,62.5C 124.022,65.709 125.689,68.8756 127.5,72C 131.13,73.6636 134.797,73.8302 138.5,72.5C 138.5,73.8333 138.5,75.1667 138.5,76.5C 137.209,76.2627 136.209,76.596 135.5,77.5C 135.5,79.1667 135.5,80.8333 135.5,82.5C 130.387,81.7316 127.053,78.7316 125.5,73.5C 124.614,74.325 124.281,75.325 124.5,76.5C 114.634,75.1472 108.968,69.4805 107.5,59.5C 107.714,57.8561 107.38,56.3561 106.5,55C 107.742,54.6886 108.742,55.1886 109.5,56.5C 109.833,55.8333 110.167,55.1667 110.5,54.5C 109.238,51.978 108.571,49.3113 108.5,46.5C 108.216,44.5853 108.549,42.9187 109.5,41.5C 111.38,41.7709 112.713,41.1042 113.5,39.5C 115.5,39.5 116.5,38.5 116.5,36.5C 116.328,35.5084 116.662,34.8417 117.5,34.5C 118.5,34.1667 119.167,33.5 119.5,32.5C 121.336,30.412 123.669,29.0787 126.5,28.5C 129.089,27.5806 131.089,25.914 132.5,23.5C 133.167,22.8333 133.833,22.1667 134.5,21.5C 135.167,21.5 135.5,21.1667 135.5,20.5C 136.167,20.5 136.5,20.1667 136.5,19.5C 136.833,19.5 137.167,19.5 137.5,19.5C 138.906,19.0269 139.573,18.0269 139.5,16.5C 140.833,15.8333 141.833,14.8333 142.5,13.5C 145.5,12.5 147.5,10.5 148.5,7.5C 151.167,5.16667 153.833,2.83333 156.5,0.5 Z"/></g>
<g><path style="opacity:0.055" fill="#fcfbfb" d="M 186.5,1.5 C 187.773,2.07683 187.773,2.7435 186.5,3.5C 185.537,3.03017 185.537,2.3635 186.5,1.5 Z"/></g>
<g><path style="opacity:0.008" fill="#fdfdfd" d="M 199.5,3.5 C 200.251,2.42654 201.251,2.25988 202.5,3C 201.552,3.48278 200.552,3.64945 199.5,3.5 Z"/></g>
<g><path style="opacity:0.741" fill="#a9a9a1" d="M 154.5,-0.5 C 155.167,-0.5 155.833,-0.5 156.5,-0.5C 156.5,-0.166667 156.5,0.166667 156.5,0.5C 153.833,2.83333 151.167,5.16667 148.5,7.5C 150.091,4.56908 152.091,1.90241 154.5,-0.5 Z"/></g>
<g><path style="opacity:0.643" fill="#c4cec3" d="M 170.5,6.5 C 174.002,6.07644 176.335,7.40977 177.5,10.5C 175.127,9.16108 172.793,7.82775 170.5,6.5 Z"/></g>
<g><path style="opacity:1" fill="#627e64" d="M 161.5,-0.5 C 162.167,-0.5 162.833,-0.5 163.5,-0.5C 163.833,0.5 164.5,1.16667 165.5,1.5C 166.167,1.5 166.5,1.83333 166.5,2.5C 168.139,3.4725 169.473,4.80584 170.5,6.5C 172.793,7.82775 175.127,9.16108 177.5,10.5C 179.569,16.9144 183.902,20.2477 190.5,20.5C 187.315,20.0196 184.481,20.6863 182,22.5C 180.612,22.7856 179.112,22.4523 177.5,21.5C 175.983,21.4894 174.816,20.8228 174,19.5C 173.667,17.5 173.333,15.5 173,13.5C 171.053,11.9366 169.886,9.93662 169.5,7.5C 168.63,5.40123 167.297,5.06789 165.5,6.5C 163.821,4.31979 162.488,1.98646 161.5,-0.5 Z"/></g>
<g><path style="opacity:0.957" fill="#757568" d="M 148.5,7.5 C 147.5,10.5 145.5,12.5 142.5,13.5C 144.167,11.1667 146.167,9.16667 148.5,7.5 Z"/></g>
<g><path style="opacity:0.643" fill="#b1b8ae" d="M 88.5,14.5 C 87.1667,14.5 85.8333,14.5 84.5,14.5C 82.0971,14.448 79.7638,14.7814 77.5,15.5C 80.8567,11.8963 84.5233,11.563 88.5,14.5 Z"/></g>
<g><path style="opacity:1" fill="#292b16" d="M 84.5,14.5 C 86.8504,16.2133 87.8504,18.5466 87.5,21.5C 87.6655,25.5138 87.4988,29.5138 87,33.5C 85.7556,30.3618 85.089,27.0284 85,23.5C 84.586,23.0426 84.086,22.7093 83.5,22.5C 82.1934,23.8155 80.6934,24.8155 79,25.5C 78.5065,27.1341 78.3398,28.8008 78.5,30.5C 79.5,30.5 80.5,30.5 81.5,30.5C 81.2408,35.4104 82.9075,39.4104 86.5,42.5C 87.446,44.8895 88.7794,47.0562 90.5,49C 90.1667,49.1667 89.8333,49.3333 89.5,49.5C 86.8847,45.05 83.3847,41.3833 79,38.5C 78.3333,40.1667 78.3333,41.8333 79,43.5C 83.6715,48.502 89.1715,52.3354 95.5,55C 96.7404,57.7437 98.7404,59.577 101.5,60.5C 98.2586,62.1388 95.5919,61.3055 93.5,58C 84.9342,55.5578 82.6009,58.2245 86.5,66C 85.9941,69.0184 84.9941,71.8517 83.5,74.5C 81.8509,72.3501 80.0176,70.3501 78,68.5C 77.5034,66.1902 77.3367,63.8568 77.5,61.5C 78.5,61.5 79.5,61.5 80.5,61.5C 81.6685,58.4962 81.6685,55.4962 80.5,52.5C 80.9186,51.3279 81.5853,50.3279 82.5,49.5C 79.8046,46.4744 77.1379,43.4744 74.5,40.5C 73.6919,40.8076 73.0253,41.3076 72.5,42C 77.6565,45.4231 78.8232,49.9231 76,55.5C 75.4387,54.9781 74.772,54.6448 74,54.5C 72.6998,55.7073 71.1998,56.3739 69.5,56.5C 70.5335,60.5289 72.5335,64.0289 75.5,67C 74.5,67.6667 73.5,67.6667 72.5,67C 69.3628,62.5212 66.1961,58.0212 63,53.5C 62.3292,52.7476 61.4959,52.4142 60.5,52.5C 60.6061,49.3855 59.6061,46.7188 57.5,44.5C 57.5172,42.4352 57.8505,40.4352 58.5,38.5C 60.4077,37.5144 61.4077,35.8477 61.5,33.5C 62.9063,33.0269 63.573,32.0269 63.5,30.5C 63.6596,28.847 64.3263,27.5137 65.5,26.5C 67.5,25.1667 69.1667,23.5 70.5,21.5C 70.8417,20.6618 71.5084,20.3284 72.5,20.5C 75.1667,19.8333 76.8333,18.1667 77.5,15.5C 79.7638,14.7814 82.0971,14.448 84.5,14.5 Z"/></g>
<g><path style="opacity:0.522" fill="#b6b6ae" d="M 142.5,13.5 C 141.833,14.8333 140.833,15.8333 139.5,16.5C 139.5,14.5 140.5,13.5 142.5,13.5 Z"/></g>
<g><path style="opacity:0.005" fill="#fdfdfd" d="M 73.5,18.5 C 72.8333,18.5 72.5,18.8333 72.5,19.5C 70.0248,19.2533 70.0248,18.5866 72.5,17.5C 73.1067,17.6236 73.44,17.9569 73.5,18.5 Z"/></g>
<g><path style="opacity:0.005" fill="#fdfdfd" d="M 136.5,19.5 C 135.833,19.5 135.5,19.8333 135.5,20.5C 134.833,20.5 134.5,20.8333 134.5,21.5C 133.761,21.631 133.094,21.4643 132.5,21C 133.667,19.8333 134.833,18.6667 136,17.5C 136.464,18.0944 136.631,18.7611 136.5,19.5 Z"/></g>
<g><path style="opacity:0.776" fill="#8e8e83" d="M 77.5,15.5 C 76.8333,18.1667 75.1667,19.8333 72.5,20.5C 72.5,20.1667 72.5,19.8333 72.5,19.5C 73.1667,19.5 73.5,19.1667 73.5,18.5C 74.8333,17.5 76.1667,16.5 77.5,15.5 Z"/></g>
<g><path style="opacity:0.553" fill="#9c9c92" d="M 139.5,16.5 C 139.573,18.0269 138.906,19.0269 137.5,19.5C 137.427,17.9731 138.094,16.9731 139.5,16.5 Z"/></g>
<g><path style="opacity:0.004" fill="#fefefe" d="M 95.5,22.5 C 95.5109,19.9991 96.1776,19.8324 97.5,22C 96.9056,22.4643 96.2389,22.631 95.5,22.5 Z"/></g>
<g><path style="opacity:0.055" fill="#d0d7ce" d="M 190.5,20.5 C 192.833,20.8333 194.167,22.1667 194.5,24.5C 192.833,23.5 191.5,22.1667 190.5,20.5 Z"/></g>
<g><path style="opacity:0.999" fill="#627f65" d="M 84.5,14.5 C 85.8333,14.5 87.1667,14.5 88.5,14.5C 90.8333,17.1667 93.1667,19.8333 95.5,22.5C 97.3177,24.5669 99.651,25.9003 102.5,26.5C 103.801,28.444 104.801,30.444 105.5,32.5C 105.328,33.4916 105.662,34.1583 106.5,34.5C 106.975,36.7837 107.975,38.7837 109.5,40.5C 105.849,40.8383 104.183,39.1716 104.5,35.5C 101.236,35.0432 98.9029,33.3765 97.5,30.5C 96.596,29.791 96.2627,28.791 96.5,27.5C 95.0425,25.9892 93.2092,24.9892 91,24.5C 90.586,24.9574 90.086,25.2907 89.5,25.5C 88.8281,24.0508 88.1614,22.7175 87.5,21.5C 87.8504,18.5466 86.8504,16.2133 84.5,14.5 Z"/></g>
<g><path style="opacity:0.624" fill="#a3a399" d="M 70.5,21.5 C 69.1667,23.5 67.5,25.1667 65.5,26.5C 66.1667,23.8333 67.8333,22.1667 70.5,21.5 Z"/></g>
<g><path style="opacity:1" fill="#364129" d="M 169.5,7.5 C 169.886,9.93662 171.053,11.9366 173,13.5C 173.333,15.5 173.667,17.5 174,19.5C 174.816,20.8228 175.983,21.4894 177.5,21.5C 179.99,28.1495 184.157,33.4828 190,37.5C 190.667,38.5 190.667,39.5 190,40.5C 183.827,36.8553 178.494,32.1886 174,26.5C 172.533,20.2672 170.366,14.2672 167.5,8.5C 167.957,7.70245 168.624,7.36912 169.5,7.5 Z"/></g>
<g><path style="opacity:0.804" fill="#919185" d="M 132.5,23.5 C 131.089,25.914 129.089,27.5806 126.5,28.5C 127.911,26.086 129.911,24.4194 132.5,23.5 Z"/></g>
<g><path style="opacity:0.004" fill="#fefefe" d="M 106.5,34.5 C 106.672,33.5084 106.338,32.8417 105.5,32.5C 105.698,27.4361 106.365,27.6027 107.5,33C 107.43,33.7648 107.097,34.2648 106.5,34.5 Z"/></g>
<g><path style="opacity:0.997" fill="#839784" d="M 232.5,32.5 C 230.565,31.8505 228.565,31.5172 226.5,31.5C 225.452,29.4662 223.786,28.1329 221.5,27.5C 219.063,29.2703 217.063,31.2703 215.5,33.5C 216.431,29.4017 218.931,26.735 223,25.5C 226.62,27.2965 229.787,29.6298 232.5,32.5 Z"/></g>
<g><path style="opacity:1" fill="#2a2c16" d="M 226.5,31.5 C 227.097,38.1813 227.93,44.848 229,51.5C 230.011,52.3366 231.178,52.67 232.5,52.5C 232.351,53.552 232.517,54.552 233,55.5C 236.819,58.5054 239.653,62.172 241.5,66.5C 240.577,67.3029 239.577,67.4696 238.5,67C 234.534,64.036 230.867,60.7026 227.5,57C 230.606,58.0651 233.273,60.0651 235.5,63C 236.332,63.6877 236.998,63.521 237.5,62.5C 234.148,58.314 230.314,54.6474 226,51.5C 225.667,47.8333 225.333,44.1667 225,40.5C 218.623,45.3022 217.79,50.9689 222.5,57.5C 221.604,59.8006 221.438,62.1339 222,64.5C 225.025,68.0239 227.858,71.6906 230.5,75.5C 227.527,73.1961 224.527,70.1961 221.5,66.5C 220.065,67.9285 219.065,69.5952 218.5,71.5C 219.418,74.4057 220.751,77.0724 222.5,79.5C 222.785,81.288 222.452,82.9547 221.5,84.5C 218.164,81.1702 214.497,78.1702 210.5,75.5C 209.833,76.5 209.167,77.5 208.5,78.5C 205.408,75.3952 202.075,72.7286 198.5,70.5C 197.386,71.723 197.219,73.0563 198,74.5C 198.654,73.3044 199.154,73.3044 199.5,74.5C 198.874,78.6174 200.041,82.2841 203,85.5C 203.167,85 203.333,84.5 203.5,84C 202.496,82.2017 201.996,80.3684 202,78.5C 204.791,83.7717 208.291,88.4384 212.5,92.5C 212.631,93.2389 212.464,93.9056 212,94.5C 210.333,92.8333 208.667,91.1667 207,89.5C 206.506,91.1341 206.34,92.8008 206.5,94.5C 202.745,92.0955 198.745,90.0955 194.5,88.5C 195.218,86.8632 195.384,85.1966 195,83.5C 194.162,84.999 193.329,85.3324 192.5,84.5C 192.851,82.1305 193.018,79.7972 193,77.5C 191.092,80.3323 190.259,79.999 190.5,76.5C 191.043,76.44 191.376,76.1067 191.5,75.5C 190.173,73.6887 189.173,71.6887 188.5,69.5C 186.183,71.6474 184.85,74.3141 184.5,77.5C 183.506,78.9989 183.506,80.6656 184.5,82.5C 183.504,82.5858 182.671,82.2524 182,81.5C 181.833,82 181.667,82.5 181.5,83C 182.695,84.5325 182.695,86.0325 181.5,87.5C 182.167,88.5 182.833,89.5 183.5,90.5C 183.062,91.5063 182.396,91.5063 181.5,90.5C 180.227,91.2565 180.227,91.9232 181.5,92.5C 180.916,95.2445 179.582,97.5779 177.5,99.5C 179.022,101.156 178.689,102.323 176.5,103C 177.381,103.708 178.047,104.542 178.5,105.5C 177.395,107.223 175.728,108.223 173.5,108.5C 172.85,108.196 172.183,107.863 171.5,107.5C 170.516,104.572 170.183,101.572 170.5,98.5C 171.338,98.1583 171.672,97.4916 171.5,96.5C 172.573,95.7494 172.74,94.7494 172,93.5C 170.316,91.6487 168.483,89.982 166.5,88.5C 167.025,87.8076 167.692,87.3076 168.5,87C 166.618,86.8019 164.952,86.3019 163.5,85.5C 167.883,80.4631 173.217,76.6297 179.5,74C 182.457,69.9199 185.29,65.7533 188,61.5C 192.478,57.6947 196.978,54.0281 201.5,50.5C 204.471,47.1924 207.471,43.859 210.5,40.5C 211.906,40.0269 212.573,39.0269 212.5,37.5C 214.262,36.7377 215.262,35.4044 215.5,33.5C 217.063,31.2703 219.063,29.2703 221.5,27.5C 223.786,28.1329 225.452,29.4662 226.5,31.5 Z"/></g>
<g><path style="opacity:0.004" fill="#fdfefd" d="M 237.5,32.5 C 238.167,31.1667 238.833,31.1667 239.5,32.5C 238.833,32.5 238.167,32.5 237.5,32.5 Z"/></g>
<g><path style="opacity:0.451" fill="#b5b5af" d="M 63.5,30.5 C 63.573,32.0269 62.9063,33.0269 61.5,33.5C 61.427,31.9731 62.0937,30.9731 63.5,30.5 Z"/></g>
<g><path style="opacity:0.004" fill="#fdfefd" d="M 239.5,32.5 C 240.167,32.5 240.5,32.8333 240.5,33.5C 240.167,33.1667 239.833,32.8333 239.5,32.5 Z"/></g>
<g><path style="opacity:0.51" fill="#b7b7b0" d="M 119.5,32.5 C 119.167,33.5 118.5,34.1667 117.5,34.5C 117.5,33.1667 118.167,32.5 119.5,32.5 Z"/></g>
<g><path style="opacity:0.863" fill="#a0b2a1" d="M 232.5,32.5 C 234.167,32.5 235.833,32.5 237.5,32.5C 237.833,33.1667 238.167,33.8333 238.5,34.5C 236.102,34.7406 234.102,34.0739 232.5,32.5 Z"/></g>
<g><path style="opacity:0.004" fill="#fdfefd" d="M 240.5,33.5 C 241.833,34.1667 241.833,34.1667 240.5,33.5 Z"/></g>
<g><path style="opacity:0.671" fill="#afb0a8" d="M 215.5,33.5 C 215.262,35.4044 214.262,36.7377 212.5,37.5C 212.738,35.5956 213.738,34.2623 215.5,33.5 Z"/></g>
<g><path style="opacity:0.008" fill="#fdfdfd" d="M 207.5,37.5 C 208.947,36.1148 209.947,36.4482 210.5,38.5C 210.167,38.5 209.833,38.5 209.5,38.5C 209.158,37.6618 208.492,37.3284 207.5,37.5 Z"/></g>
<g><path style="opacity:0.006" fill="#fdfefd" d="M 243.5,43.5 C 243.737,42.209 243.404,41.209 242.5,40.5C 242.836,35.5894 243.502,35.9228 244.5,41.5C 244.457,42.4164 244.124,43.0831 243.5,43.5 Z"/></g>
<g><path style="opacity:1" fill="#727263" d="M 61.5,33.5 C 61.4077,35.8477 60.4077,37.5144 58.5,38.5C 58.7497,36.326 59.7497,34.6594 61.5,33.5 Z"/></g>
<g><path style="opacity:1" fill="#37442c" d="M 96.5,27.5 C 96.2627,28.791 96.596,29.791 97.5,30.5C 98.3186,34.8526 100.652,38.3526 104.5,41C 103.354,41.6449 102.354,42.4783 101.5,43.5C 99.3295,41.9138 96.9962,40.5804 94.5,39.5C 94.1667,38.6667 93.8333,37.8333 93.5,37C 93.6316,33.3244 94.6316,30.1578 96.5,27.5 Z"/></g>
<g><path style="opacity:1" fill="#41573c" d="M 174.5,51.5 C 174.719,55.5274 173.552,56.1941 171,53.5C 170.508,54.549 170.674,55.549 171.5,56.5C 169.926,57.6309 168.259,57.7975 166.5,57C 165.188,54.0592 163.688,51.2258 162,48.5C 161.813,52.5382 162.646,56.3716 164.5,60C 163.663,61.0113 163.33,62.1779 163.5,63.5C 161.194,63.0074 158.861,62.6741 156.5,62.5C 156.391,57.3229 155.891,52.3229 155,47.5C 156.467,44.5846 158.301,42.5846 160.5,41.5C 156.536,41.1005 154.203,43.1005 153.5,47.5C 151.52,46.5264 149.853,45.193 148.5,43.5C 147.305,43.1344 146.639,42.301 146.5,41C 149.647,35.58 151.147,29.7466 151,23.5C 149.988,27.8659 148.154,32.1993 145.5,36.5C 145.257,33.6873 144.924,30.8539 144.5,28C 144.878,26.3651 145.544,24.8651 146.5,23.5C 150.066,21.9433 152.066,19.2766 152.5,15.5C 153.822,15.33 154.989,15.6634 156,16.5C 155.722,20.1394 155.722,23.8061 156,27.5C 161.912,32.6717 165.746,39.005 167.5,46.5C 168.987,49.3157 171.32,50.9823 174.5,51.5 Z"/></g>
<g><path style="opacity:0.996" fill="#92a492" d="M 197.5,29.5 C 200.564,32.5703 203.897,35.2369 207.5,37.5C 207.5,37.8333 207.5,38.1667 207.5,38.5C 205.833,38.5 204.167,38.5 202.5,38.5C 202.649,37.448 202.483,36.448 202,35.5C 199.873,33.8863 198.373,31.8863 197.5,29.5 Z"/></g>
<g><path style="opacity:0.776" fill="#929288" d="M 116.5,36.5 C 116.5,38.5 115.5,39.5 113.5,39.5C 114.167,38.1667 115.167,37.1667 116.5,36.5 Z"/></g>
<g><path style="opacity:1" fill="#3c5036" d="M 139.5,30.5 C 140.376,30.3691 141.043,30.7025 141.5,31.5C 142.262,34.4063 143.262,37.2396 144.5,40C 144.612,41.6624 143.946,42.8291 142.5,43.5C 140.876,39.2992 139.876,34.9658 139.5,30.5 Z"/></g>
<g><path style="opacity:0.22" fill="#b9bcb3" d="M 212.5,37.5 C 212.573,39.0269 211.906,40.0269 210.5,40.5C 208.973,40.573 207.973,39.9063 207.5,38.5C 208.167,38.5 208.833,38.5 209.5,38.5C 209.833,39.8333 210.167,39.8333 210.5,38.5C 211.167,38.1667 211.833,37.8333 212.5,37.5 Z"/></g>
<g><path style="opacity:0.667" fill="#a1b1a0" d="M 238.5,34.5 C 240.69,35.9748 242.023,37.9748 242.5,40.5C 242.263,41.791 242.596,42.791 243.5,43.5C 243.5,44.5 243.5,45.5 243.5,46.5C 241.547,42.7815 239.881,38.7815 238.5,34.5 Z"/></g>
<g><path style="opacity:0.306" fill="#c1c2bc" d="M 113.5,39.5 C 112.713,41.1042 111.38,41.7709 109.5,41.5C 109.5,41.1667 109.5,40.8333 109.5,40.5C 110.833,40.1667 112.167,39.8333 113.5,39.5 Z"/></g>
<g><path style="opacity:1" fill="#455d42" d="M 156.5,0.5 C 156.5,0.166667 156.5,-0.166667 156.5,-0.5C 158.167,-0.5 159.833,-0.5 161.5,-0.5C 162.488,1.98646 163.821,4.31979 165.5,6.5C 167.297,5.06789 168.63,5.40123 169.5,7.5C 168.624,7.36912 167.957,7.70245 167.5,8.5C 170.366,14.2672 172.533,20.2672 174,26.5C 178.494,32.1886 183.827,36.8553 190,40.5C 190.667,39.5 190.667,38.5 190,37.5C 184.157,33.4828 179.99,28.1495 177.5,21.5C 179.112,22.4523 180.612,22.7856 182,22.5C 184.481,20.6863 187.315,20.0196 190.5,20.5C 191.5,22.1667 192.833,23.5 194.5,24.5C 196.25,25.6594 197.25,27.326 197.5,29.5C 198.373,31.8863 199.873,33.8863 202,35.5C 202.483,36.448 202.649,37.448 202.5,38.5C 204.167,38.5 205.833,38.5 207.5,38.5C 207.973,39.9063 208.973,40.573 210.5,40.5C 207.471,43.859 204.471,47.1924 201.5,50.5C 200.883,50.3893 200.383,50.056 200,49.5C 197.21,50.6985 194.543,51.3651 192,51.5C 191.492,49.0958 190.325,48.4291 188.5,49.5C 186.05,46.9326 184.383,43.9326 183.5,40.5C 180.755,41.9753 178.588,41.3087 177,38.5C 175.513,35.519 174.179,32.519 173,29.5C 172.667,31.5 172.333,33.5 172,35.5C 171.005,36.0659 170.172,36.7326 169.5,37.5C 168.614,38.7759 167.614,38.7759 166.5,37.5C 159.488,30.1212 157.155,21.4546 159.5,11.5C 160.192,12.0253 160.692,12.6919 161,13.5C 161.439,9.78873 161.106,6.12206 160,2.5C 159.184,1.17723 158.017,0.510559 156.5,0.5 Z"/></g>
<g><path style="opacity:1" fill="#2b2f1a" d="M 185.5,22.5 C 187.757,21.1974 189.59,21.864 191,24.5C 195.743,38.6195 195.076,38.9528 189,25.5C 187.961,24.2899 186.794,23.2899 185.5,22.5 Z"/></g>
<g><path style="opacity:1" fill="#425a3f" d="M 87.5,21.5 C 88.1614,22.7175 88.8281,24.0508 89.5,25.5C 90.086,25.2907 90.586,24.9574 91,24.5C 93.2092,24.9892 95.0425,25.9892 96.5,27.5C 94.6316,30.1578 93.6316,33.3244 93.5,37C 93.8333,37.8333 94.1667,38.6667 94.5,39.5C 96.9962,40.5804 99.3295,41.9138 101.5,43.5C 102.354,42.4783 103.354,41.6449 104.5,41C 100.652,38.3526 98.3186,34.8526 97.5,30.5C 98.9029,33.3765 101.236,35.0432 104.5,35.5C 104.183,39.1716 105.849,40.8383 109.5,40.5C 109.5,40.8333 109.5,41.1667 109.5,41.5C 108.549,42.9187 108.216,44.5853 108.5,46.5C 105.881,46.2317 103.381,46.565 101,47.5C 99.8455,46.2567 98.5122,45.2567 97,44.5C 95.7553,44.4615 94.4219,44.7948 93,45.5C 91.022,44.0944 88.8553,43.0944 86.5,42.5C 82.9075,39.4104 81.2408,35.4104 81.5,30.5C 80.5,30.5 79.5,30.5 78.5,30.5C 78.3398,28.8008 78.5065,27.1341 79,25.5C 80.6934,24.8155 82.1934,23.8155 83.5,22.5C 84.086,22.7093 84.586,23.0426 85,23.5C 85.089,27.0284 85.7556,30.3618 87,33.5C 87.4988,29.5138 87.6655,25.5138 87.5,21.5 Z"/></g>
<g><path style="opacity:0.998" fill="#757463" d="M 58.5,38.5 C 57.8505,40.4352 57.5172,42.4352 57.5,44.5C 56.609,43.8902 55.609,43.5569 54.5,43.5C 55.604,41.6115 56.9373,39.9448 58.5,38.5 Z"/></g>
<g><path style="opacity:0.008" fill="#fdfefd" d="M 244.5,44.5 C 245.833,45.1667 245.833,45.1667 244.5,44.5 Z"/></g>
<g><path style="opacity:1" fill="#332109" d="M 54.5,43.5 C 55.609,43.5569 56.609,43.8902 57.5,44.5C 59.6061,46.7188 60.6061,49.3855 60.5,52.5C 62.2487,58.9075 64.2487,65.2409 66.5,71.5C 68.4949,66.3059 70.3282,66.3059 72,71.5C 73.0275,77.8325 74.3608,83.8325 76,89.5C 77.016,90.6341 77.6827,90.3008 78,88.5C 78.3641,83.6784 79.3641,79.0117 81,74.5C 82.363,80.556 83.863,86.556 85.5,92.5C 88.2212,90.205 89.7212,87.205 90,83.5C 90.5257,86.2716 91.3591,88.9382 92.5,91.5C 93.1667,89.8333 93.8333,88.1667 94.5,86.5C 95.3818,89.3195 96.5485,91.9862 98,94.5C 98.8624,92.913 99.5291,91.2464 100,89.5C 102.254,96.587 103.587,103.92 104,111.5C 104.708,112.381 105.542,113.047 106.5,113.5C 106.918,114.222 107.584,114.722 108.5,115C 107.692,115.308 107.025,115.808 106.5,116.5C 108.766,117.314 111.1,117.814 113.5,118C 114.056,118.383 114.389,118.883 114.5,119.5C 113.675,123.647 113.175,127.981 113,132.5C 112.667,132.167 112.333,131.833 112,131.5C 110.855,132.636 109.688,133.636 108.5,134.5C 101.65,131.317 95.3171,127.317 89.5,122.5C 84.4994,117.69 79.8327,112.523 75.5,107C 74.2068,106.51 72.8734,106.343 71.5,106.5C 71.7852,104.712 71.4519,103.045 70.5,101.5C 69.8933,101.624 69.56,101.957 69.5,102.5C 68.8333,102.167 68.1667,101.833 67.5,101.5C 66.6618,101.158 66.3284,100.492 66.5,99.5C 66.573,97.9731 65.9063,96.9731 64.5,96.5C 63.2638,94.351 62.2638,92.0177 61.5,89.5C 60.3472,84.5522 58.6805,79.8855 56.5,75.5C 55.6993,73.9582 55.366,72.2915 55.5,70.5C 55.6558,66.2357 54.9891,62.2357 53.5,58.5C 53.2743,53.4376 53.6076,48.4376 54.5,43.5 Z"/></g>
<g><path style="opacity:0.008" fill="#fdfdfd" d="M 249.5,52.5 C 249.167,52.5 248.833,52.5 248.5,52.5C 248.833,49.8333 249.167,49.8333 249.5,52.5 Z"/></g>
<g><path style="opacity:1" fill="#3c4d32" d="M 86.5,42.5 C 88.8553,43.0944 91.022,44.0944 93,45.5C 94.4219,44.7948 95.7553,44.4615 97,44.5C 98.5122,45.2567 99.8455,46.2567 101,47.5C 103.381,46.565 105.881,46.2317 108.5,46.5C 108.571,49.3113 109.238,51.978 110.5,54.5C 110.167,55.1667 109.833,55.8333 109.5,56.5C 108.742,55.1886 107.742,54.6886 106.5,55C 107.38,56.3561 107.714,57.8561 107.5,59.5C 105.777,57.7472 104.277,55.7472 103,53.5C 103.172,56.3513 104.339,58.8513 106.5,61C 104.893,60.9813 103.226,60.8146 101.5,60.5C 98.7404,59.577 96.7404,57.7437 95.5,55C 89.1715,52.3354 83.6715,48.502 79,43.5C 78.3333,41.8333 78.3333,40.1667 79,38.5C 83.3847,41.3833 86.8847,45.05 89.5,49.5C 89.8333,49.3333 90.1667,49.1667 90.5,49C 88.7794,47.0562 87.446,44.8895 86.5,42.5 Z"/></g>
<g><path style="opacity:1" fill="#455e42" d="M 226.5,31.5 C 228.565,31.5172 230.565,31.8505 232.5,32.5C 234.102,34.0739 236.102,34.7406 238.5,34.5C 239.881,38.7815 241.547,42.7815 243.5,46.5C 245.326,48.1475 246.66,50.1475 247.5,52.5C 246.553,58.4657 245.886,64.4657 245.5,70.5C 245.5,71.8333 245.5,73.1667 245.5,74.5C 244.833,74.5 244.5,74.8333 244.5,75.5C 244.167,75.5 243.833,75.5 243.5,75.5C 242.539,72.5739 241.873,69.5739 241.5,66.5C 239.653,62.172 236.819,58.5054 233,55.5C 232.517,54.552 232.351,53.552 232.5,52.5C 231.178,52.67 230.011,52.3366 229,51.5C 227.93,44.848 227.097,38.1813 226.5,31.5 Z"/></g>
<g><path style="opacity:1" fill="#2e331f" d="M 232.5,35.5 C 233.5,35.5 234.5,35.5 235.5,35.5C 235.679,45.9005 234.679,45.9005 232.5,35.5 Z"/></g>
<g><path style="opacity:0.004" fill="#fdfefd" d="M 249.5,52.5 C 250.622,54.2884 250.789,56.2884 250,58.5C 249.505,56.5273 249.338,54.5273 249.5,52.5 Z"/></g>
<g><path style="opacity:0.112" fill="#e7e6e5" d="M 54.5,43.5 C 53.6076,48.4376 53.2743,53.4376 53.5,58.5C 53.5,58.8333 53.5,59.1667 53.5,59.5C 53.1667,59.5 52.8333,59.5 52.5,59.5C 52.3341,54.4889 52.5007,49.4889 53,44.5C 53.3826,43.944 53.8826,43.6107 54.5,43.5 Z"/></g>
<g><path style="opacity:0.015" fill="#fbfbfb" d="M 52.5,59.5 C 52.6602,61.1992 52.4935,62.8659 52,64.5C 51.2204,62.6131 51.3871,60.9464 52.5,59.5 Z"/></g>
<g><path style="opacity:0.545" fill="#b6beb3" d="M 247.5,52.5 C 247.833,52.5 248.167,52.5 248.5,52.5C 248.073,56.8244 247.739,61.1578 247.5,65.5C 246.549,66.9187 246.216,68.5853 246.5,70.5C 246.167,70.5 245.833,70.5 245.5,70.5C 245.886,64.4657 246.553,58.4657 247.5,52.5 Z"/></g>
<g><path style="opacity:0.012" fill="#fcfcfc" d="M 248.5,65.5 C 248.338,63.4727 248.505,61.4727 249,59.5C 249.789,61.7116 249.622,63.7116 248.5,65.5 Z"/></g>
<g><path style="opacity:1" fill="#3c4d32" d="M 201.5,50.5 C 196.978,54.0281 192.478,57.6947 188,61.5C 185.29,65.7533 182.457,69.9199 179.5,74C 173.217,76.6297 167.883,80.4631 163.5,85.5C 162.167,84.5 160.833,83.5 159.5,82.5C 160.463,80.7016 159.796,79.3683 157.5,78.5C 156.513,75.2317 156.18,71.8984 156.5,68.5C 157.359,71.2116 158.525,73.8782 160,76.5C 160.167,75.3333 160.333,74.1667 160.5,73C 158.978,69.6191 157.644,66.1191 156.5,62.5C 158.861,62.6741 161.194,63.0074 163.5,63.5C 163.33,62.1779 163.663,61.0113 164.5,60C 162.646,56.3716 161.813,52.5382 162,48.5C 163.688,51.2258 165.188,54.0592 166.5,57C 168.259,57.7975 169.926,57.6309 171.5,56.5C 170.674,55.549 170.508,54.549 171,53.5C 173.552,56.1941 174.719,55.5274 174.5,51.5C 176.781,52.6082 178.948,53.9415 181,55.5C 180.462,47.4307 176.629,41.4307 169.5,37.5C 170.172,36.7326 171.005,36.0659 172,35.5C 172.333,33.5 172.667,31.5 173,29.5C 174.179,32.519 175.513,35.519 177,38.5C 178.588,41.3087 180.755,41.9753 183.5,40.5C 184.383,43.9326 186.05,46.9326 188.5,49.5C 190.325,48.4291 191.492,49.0958 192,51.5C 194.543,51.3651 197.21,50.6985 200,49.5C 200.383,50.056 200.883,50.3893 201.5,50.5 Z"/></g>
<g><path style="opacity:1" fill="#3b482e" d="M 214.5,52.5 C 216.074,56.7487 217.407,61.2487 218.5,66C 216.98,69.6121 216.146,73.4454 216,77.5C 213.778,75.6152 211.944,73.4485 210.5,71C 211.742,68.5282 212.908,66.0282 214,63.5C 214.209,59.6953 214.376,56.0286 214.5,52.5 Z"/></g>
<g><path style="opacity:0.792" fill="#8f877d" d="M 53.5,58.5 C 54.9891,62.2357 55.6558,66.2357 55.5,70.5C 55.1667,70.5 54.8333,70.5 54.5,70.5C 54.2756,66.8212 53.9422,63.1545 53.5,59.5C 53.5,59.1667 53.5,58.8333 53.5,58.5 Z"/></g>
<g><path style="opacity:0.008" fill="#fdfdfd" d="M 54.5,70.5 C 54.5432,74.8926 54.0432,75.2259 53,71.5C 52.3333,69.5 52.3333,67.5 53,65.5C 53.1981,67.3817 53.6981,69.0484 54.5,70.5 Z"/></g>
<g><path style="opacity:0.009" fill="#fdfdfd" d="M 247.5,65.5 C 247.833,65.5 248.167,65.5 248.5,65.5C 248.784,67.4147 248.451,69.0813 247.5,70.5C 247.5,68.8333 247.5,67.1667 247.5,65.5 Z"/></g>
<g><path style="opacity:1" fill="#3f3d1e" d="M 101.5,60.5 C 103.226,60.8146 104.893,60.9813 106.5,61C 104.339,58.8513 103.172,56.3513 103,53.5C 104.277,55.7472 105.777,57.7472 107.5,59.5C 108.968,69.4805 114.634,75.1472 124.5,76.5C 124.281,75.325 124.614,74.325 125.5,73.5C 127.053,78.7316 130.387,81.7316 135.5,82.5C 135.5,80.8333 135.5,79.1667 135.5,77.5C 136.937,80.3303 136.604,82.997 134.5,85.5C 133.199,86.8845 133.199,88.3845 134.5,90C 132.5,92 130.5,94 128.5,96C 129.094,96.4643 129.761,96.631 130.5,96.5C 129.09,97.8284 127.924,97.4951 127,95.5C 126.46,97.1346 126.96,98.4679 128.5,99.5C 128.376,100.107 128.043,100.44 127.5,100.5C 126.833,99.8333 126.167,99.1667 125.5,98.5C 125.423,97.2502 124.756,96.4169 123.5,96C 124.687,94.9805 125.687,93.8139 126.5,92.5C 125.975,91.8076 125.308,91.3076 124.5,91C 125.285,88.5571 125.119,86.0571 124,83.5C 121.915,82.3531 120.415,83.0197 119.5,85.5C 118.833,87.8333 118.167,90.1667 117.5,92.5C 116.322,89.6092 115.655,86.6092 115.5,83.5C 114.325,83.281 113.325,83.6143 112.5,84.5C 112.064,87.0916 111.064,89.4249 109.5,91.5C 111.015,92.5905 111.848,93.9239 112,95.5C 106.838,94.3229 106.338,95.3229 110.5,98.5C 110.631,99.2389 110.464,99.9056 110,100.5C 109,99.1667 108,99.1667 107,100.5C 106.26,101.749 106.427,102.749 107.5,103.5C 109.996,105.558 109.33,106.724 105.5,107C 106.423,109.041 106.756,111.208 106.5,113.5C 105.542,113.047 104.708,112.381 104,111.5C 103.587,103.92 102.254,96.587 100,89.5C 99.5291,91.2464 98.8624,92.913 98,94.5C 96.5485,91.9862 95.3818,89.3195 94.5,86.5C 93.8333,88.1667 93.1667,89.8333 92.5,91.5C 91.3591,88.9382 90.5257,86.2716 90,83.5C 89.7212,87.205 88.2212,90.205 85.5,92.5C 83.863,86.556 82.363,80.556 81,74.5C 79.3641,79.0117 78.3641,83.6784 78,88.5C 77.6827,90.3008 77.016,90.6341 76,89.5C 74.3608,83.8325 73.0275,77.8325 72,71.5C 70.3282,66.3059 68.4949,66.3059 66.5,71.5C 64.2487,65.2409 62.2487,58.9075 60.5,52.5C 61.4959,52.4142 62.3292,52.7476 63,53.5C 66.1961,58.0212 69.3628,62.5212 72.5,67C 73.5,67.6667 74.5,67.6667 75.5,67C 72.5335,64.0289 70.5335,60.5289 69.5,56.5C 71.1998,56.3739 72.6998,55.7073 74,54.5C 74.772,54.6448 75.4387,54.9781 76,55.5C 78.8232,49.9231 77.6565,45.4231 72.5,42C 73.0253,41.3076 73.6919,40.8076 74.5,40.5C 77.1379,43.4744 79.8046,46.4744 82.5,49.5C 81.5853,50.3279 80.9186,51.3279 80.5,52.5C 81.6685,55.4962 81.6685,58.4962 80.5,61.5C 79.5,61.5 78.5,61.5 77.5,61.5C 77.3367,63.8568 77.5034,66.1902 78,68.5C 80.0176,70.3501 81.8509,72.3501 83.5,74.5C 84.9941,71.8517 85.9941,69.0184 86.5,66C 82.6009,58.2245 84.9342,55.5578 93.5,58C 95.5919,61.3055 98.2586,62.1388 101.5,60.5 Z"/></g>
<g><path style="opacity:1" fill="#3d4c30" d="M 148.5,43.5 C 149.853,45.193 151.52,46.5264 153.5,47.5C 153.062,49.126 152.728,50.7927 152.5,52.5C 153.761,57.8704 155.094,63.2037 156.5,68.5C 156.18,71.8984 156.513,75.2317 157.5,78.5C 159.796,79.3683 160.463,80.7016 159.5,82.5C 156.849,80.3493 154.349,78.016 152,75.5C 146.662,80.1723 141.328,84.839 136,89.5C 135.508,88.451 135.674,87.451 136.5,86.5C 136.043,85.7025 135.376,85.3691 134.5,85.5C 136.604,82.997 136.937,80.3303 135.5,77.5C 136.209,76.596 137.209,76.2627 138.5,76.5C 138.5,75.1667 138.5,73.8333 138.5,72.5C 134.797,73.8302 131.13,73.6636 127.5,72C 125.689,68.8756 124.022,65.709 122.5,62.5C 122.833,61.8333 123.167,61.1667 123.5,60.5C 125.198,61.6808 126.865,61.6808 128.5,60.5C 125.92,59.4512 123.254,58.7845 120.5,58.5C 120.5,57.5 120.5,56.5 120.5,55.5C 125.155,56.1807 127.822,54.1807 128.5,49.5C 130.078,50.6405 131.744,51.1405 133.5,51C 131.333,49.5 129.167,48 127,46.5C 126.333,44.8333 126.333,43.1667 127,41.5C 128.574,42.9842 129.907,44.6508 131,46.5C 131.667,45.5 131.667,44.5 131,43.5C 129.647,42.3147 128.48,40.9814 127.5,39.5C 128.628,38.7379 129.795,38.0712 131,37.5C 131.454,34.3885 133.287,32.7218 136.5,32.5C 136.112,34.0252 136.112,35.6918 136.5,37.5C 135.675,38.3857 134.675,38.719 133.5,38.5C 133.787,42.7232 134.454,46.8899 135.5,51C 133.925,52.1195 132.925,53.6195 132.5,55.5C 133.649,57.7971 134.815,60.1304 136,62.5C 136.333,61.1667 136.667,59.8333 137,58.5C 137.333,60.8333 137.667,63.1667 138,65.5C 140.26,66.6729 142.426,68.0062 144.5,69.5C 145.5,68.1667 146.5,66.8333 147.5,65.5C 148.451,66.3256 149.451,66.4922 150.5,66C 149.549,62.9433 149.216,59.7766 149.5,56.5C 148.022,56.762 146.689,56.4287 145.5,55.5C 148.428,51.9001 149.428,47.9001 148.5,43.5 Z"/></g>
<g><path style="opacity:1" fill="#2b311a" d="M 156.5,62.5 C 157.644,66.1191 158.978,69.6191 160.5,73C 160.333,74.1667 160.167,75.3333 160,76.5C 158.525,73.8782 157.359,71.2116 156.5,68.5C 155.094,63.2037 153.761,57.8704 152.5,52.5C 152.728,50.7927 153.062,49.126 153.5,47.5C 154.203,43.1005 156.536,41.1005 160.5,41.5C 158.301,42.5846 156.467,44.5846 155,47.5C 155.891,52.3229 156.391,57.3229 156.5,62.5 Z"/></g>
<g><path style="opacity:1" fill="#9d8b68" d="M 190.5,76.5 C 189.168,75.1696 188.335,73.5029 188,71.5C 186.851,74.2353 185.685,76.2353 184.5,77.5C 184.85,74.3141 186.183,71.6474 188.5,69.5C 189.173,71.6887 190.173,73.6887 191.5,75.5C 191.376,76.1067 191.043,76.44 190.5,76.5 Z"/></g>
<g><path style="opacity:0.01" fill="#fcfcfc" d="M 246.5,70.5 C 246.833,70.5 247.167,70.5 247.5,70.5C 247.768,72.099 247.434,73.4324 246.5,74.5C 246.5,73.1667 246.5,71.8333 246.5,70.5 Z"/></g>
<g><path style="opacity:1" fill="#3f4f33" d="M 241.5,66.5 C 241.873,69.5739 242.539,72.5739 243.5,75.5C 242.85,77.4352 242.517,79.4352 242.5,81.5C 241.069,82.7804 240.402,84.4471 240.5,86.5C 240.5,87.5 240.5,88.5 240.5,89.5C 239.662,89.8417 239.328,90.5084 239.5,91.5C 238.662,91.8417 238.328,92.5084 238.5,93.5C 237.326,94.5137 236.66,95.847 236.5,97.5C 235.662,97.8417 235.328,98.5084 235.5,99.5C 234.662,99.8417 234.328,100.508 234.5,101.5C 234.167,101.5 233.833,101.5 233.5,101.5C 233.274,98.7508 233.607,96.0841 234.5,93.5C 233.137,92.1072 232.304,90.4405 232,88.5C 230.605,87.1854 229.605,87.5188 229,89.5C 227.951,87.8934 226.451,87.2267 224.5,87.5C 224.889,84.4467 224.223,81.78 222.5,79.5C 220.751,77.0724 219.418,74.4057 218.5,71.5C 219.065,69.5952 220.065,67.9285 221.5,66.5C 224.527,70.1961 227.527,73.1961 230.5,75.5C 227.858,71.6906 225.025,68.0239 222,64.5C 221.438,62.1339 221.604,59.8006 222.5,57.5C 217.79,50.9689 218.623,45.3022 225,40.5C 225.333,44.1667 225.667,47.8333 226,51.5C 230.314,54.6474 234.148,58.314 237.5,62.5C 236.998,63.521 236.332,63.6877 235.5,63C 233.273,60.0651 230.606,58.0651 227.5,57C 230.867,60.7026 234.534,64.036 238.5,67C 239.577,67.4696 240.577,67.3029 241.5,66.5 Z"/></g>
<g><path style="opacity:0.008" fill="#fdfdfd" d="M 245.5,74.5 C 245.833,74.5 246.167,74.5 246.5,74.5C 246.768,76.099 246.434,77.4324 245.5,78.5C 245.5,77.1667 245.5,75.8333 245.5,74.5 Z"/></g>
<g><path style="opacity:0.007" fill="#fdfdfd" d="M 56.5,78.5 C 56.6495,79.552 56.4828,80.552 56,81.5C 55.2599,80.2506 55.4265,79.2506 56.5,78.5 Z"/></g>
<g><path style="opacity:0.549" fill="#b6bdb3" d="M 243.5,75.5 C 243.833,75.5 244.167,75.5 244.5,75.5C 244.5,76.5 244.5,77.5 244.5,78.5C 243.596,79.209 243.263,80.209 243.5,81.5C 243.167,81.5 242.833,81.5 242.5,81.5C 242.517,79.4352 242.85,77.4352 243.5,75.5 Z"/></g>
<g><path style="opacity:0.008" fill="#fdfdfd" d="M 244.5,78.5 C 244.833,78.5 245.167,78.5 245.5,78.5C 245.737,79.791 245.404,80.791 244.5,81.5C 244.5,80.5 244.5,79.5 244.5,78.5 Z"/></g>
<g><path style="opacity:1" fill="#3b4124" d="M 222.5,79.5 C 224.223,81.78 224.889,84.4467 224.5,87.5C 226.451,87.2267 227.951,87.8934 229,89.5C 229.605,87.5188 230.605,87.1854 232,88.5C 232.304,90.4405 233.137,92.1072 234.5,93.5C 233.607,96.0841 233.274,98.7508 233.5,101.5C 233.167,101.5 232.833,101.5 232.5,101.5C 232.656,97.4183 232.156,93.4183 231,89.5C 229.529,93.7899 228.029,98.1232 226.5,102.5C 225.914,102.291 225.414,101.957 225,101.5C 224.833,97.2921 224,93.9588 222.5,91.5C 220.064,91.317 217.897,91.9837 216,93.5C 214.989,92.6634 213.822,92.33 212.5,92.5C 208.291,88.4384 204.791,83.7717 202,78.5C 201.996,80.3684 202.496,82.2017 203.5,84C 203.333,84.5 203.167,85 203,85.5C 200.041,82.2841 198.874,78.6174 199.5,74.5C 199.154,73.3044 198.654,73.3044 198,74.5C 197.219,73.0563 197.386,71.723 198.5,70.5C 202.075,72.7286 205.408,75.3952 208.5,78.5C 209.167,77.5 209.833,76.5 210.5,75.5C 214.497,78.1702 218.164,81.1702 221.5,84.5C 222.452,82.9547 222.785,81.288 222.5,79.5 Z"/></g>
<g><path style="opacity:1" fill="#c4a773" d="M 159.5,82.5 C 160.833,83.5 162.167,84.5 163.5,85.5C 164.952,86.3019 166.618,86.8019 168.5,87C 167.692,87.3076 167.025,87.8076 166.5,88.5C 168.483,89.982 170.316,91.6487 172,93.5C 172.74,94.7494 172.573,95.7494 171.5,96.5C 165.187,90.5216 158.854,84.5216 152.5,78.5C 144.857,84.1451 137.524,90.1451 130.5,96.5C 129.761,96.631 129.094,96.4643 128.5,96C 130.5,94 132.5,92 134.5,90C 133.199,88.3845 133.199,86.8845 134.5,85.5C 135.376,85.3691 136.043,85.7025 136.5,86.5C 135.674,87.451 135.508,88.451 136,89.5C 141.328,84.839 146.662,80.1723 152,75.5C 154.349,78.016 156.849,80.3493 159.5,82.5 Z"/></g>
<g><path style="opacity:0.005" fill="#fefefd" d="M 243.5,81.5 C 243.833,81.5 244.167,81.5 244.5,81.5C 244.737,82.791 244.404,83.791 243.5,84.5C 243.5,83.5 243.5,82.5 243.5,81.5 Z"/></g>
<g><path style="opacity:0.294" fill="#b8b2ab" d="M 56.5,75.5 C 58.6805,79.8855 60.3472,84.5522 61.5,89.5C 60.3127,87.9275 59.3127,86.2608 58.5,84.5C 58.1249,82.3024 57.4582,80.3024 56.5,78.5C 56.5,77.5 56.5,76.5 56.5,75.5 Z"/></g>
<g><path style="opacity:0.008" fill="#fcfcfc" d="M 58.5,84.5 C 58.631,85.2389 58.4643,85.9056 58,86.5C 57.3083,85.5632 57.475,84.8966 58.5,84.5 Z"/></g>
<g><path style="opacity:0.4" fill="#bec2b9" d="M 242.5,81.5 C 242.5,82.5 242.5,83.5 242.5,84.5C 241.662,84.8417 241.328,85.5084 241.5,86.5C 241.167,86.5 240.833,86.5 240.5,86.5C 240.402,84.4471 241.069,82.7804 242.5,81.5 Z"/></g>
<g><path style="opacity:0.006" fill="#fdfefd" d="M 242.5,84.5 C 242.833,84.5 243.167,84.5 243.5,84.5C 243.672,85.4916 243.338,86.1583 242.5,86.5C 242.5,85.8333 242.5,85.1667 242.5,84.5 Z"/></g>
<g><path style="opacity:1" fill="#b59e6f" d="M 194.5,88.5 C 191.958,90.4133 192.292,90.7466 195.5,89.5C 196.797,91.9732 196.797,94.3066 195.5,96.5C 195.5,94.8333 195.5,93.1667 195.5,91.5C 194.167,91.5 192.833,91.5 191.5,91.5C 191.643,89.7376 191.309,88.0709 190.5,86.5C 190.855,85.4777 191.522,84.811 192.5,84.5C 193.329,85.3324 194.162,84.999 195,83.5C 195.384,85.1966 195.218,86.8632 194.5,88.5 Z"/></g>
<g><path style="opacity:0.005" fill="#fdfefd" d="M 241.5,86.5 C 241.833,86.5 242.167,86.5 242.5,86.5C 242.737,87.791 242.404,88.791 241.5,89.5C 241.5,88.5 241.5,87.5 241.5,86.5 Z"/></g>
<g><path style="opacity:0.006" fill="#fdfefd" d="M 240.5,89.5 C 240.833,89.5 241.167,89.5 241.5,89.5C 241.672,90.4916 241.338,91.1583 240.5,91.5C 240.5,90.8333 240.5,90.1667 240.5,89.5 Z"/></g>
<g><path style="opacity:1" fill="#3f391a" d="M 194.5,88.5 C 198.745,90.0955 202.745,92.0955 206.5,94.5C 206.34,92.8008 206.506,91.1341 207,89.5C 208.667,91.1667 210.333,92.8333 212,94.5C 212.464,93.9056 212.631,93.2389 212.5,92.5C 213.822,92.33 214.989,92.6634 216,93.5C 217.897,91.9837 220.064,91.317 222.5,91.5C 221.208,97.4109 220.375,103.411 220,109.5C 219.692,110.308 219.192,110.975 218.5,111.5C 215.901,104.689 214.401,105.023 214,112.5C 213.107,113.711 212.274,113.711 211.5,112.5C 210.538,107.737 209.371,103.07 208,98.5C 207.343,104.372 205.509,109.705 202.5,114.5C 201.795,112.328 200.795,110.328 199.5,108.5C 198.914,108.709 198.414,109.043 198,109.5C 197.206,112.471 196.539,115.471 196,118.5C 194.289,119.581 192.789,119.248 191.5,117.5C 194.004,115.246 193.337,113.912 189.5,113.5C 192.04,112.639 194.04,110.972 195.5,108.5C 194.423,107.295 193.09,106.628 191.5,106.5C 193.386,105.935 195.053,104.935 196.5,103.5C 195.965,101.729 195.131,101.396 194,102.5C 193.647,101.328 193.813,100.162 194.5,99C 191.61,97.1082 191.944,96.2749 195.5,96.5C 196.797,94.3066 196.797,91.9732 195.5,89.5C 192.292,90.7466 191.958,90.4133 194.5,88.5 Z"/></g>
<g><path style="opacity:0.008" fill="#fdfdfd" d="M 239.5,91.5 C 239.833,91.5 240.167,91.5 240.5,91.5C 240.672,92.4916 240.338,93.1583 239.5,93.5C 239.5,92.8333 239.5,92.1667 239.5,91.5 Z"/></g>
<g><path style="opacity:0.006" fill="#fdfdfd" d="M 238.5,93.5 C 238.833,93.5 239.167,93.5 239.5,93.5C 239.167,96.1667 238.833,96.1667 238.5,93.5 Z"/></g>
<g><path style="opacity:1" fill="#e4bd83" d="M 170.5,98.5 C 170.183,101.572 170.516,104.572 171.5,107.5C 172.183,107.863 172.85,108.196 173.5,108.5C 173.5,109.167 173.833,109.5 174.5,109.5C 173.652,110.625 172.652,110.625 171.5,109.5C 169.637,107.295 167.303,105.961 164.5,105.5C 164.5,105.167 164.5,104.833 164.5,104.5C 164.5,102.5 164.5,100.5 164.5,98.5C 162.833,98.5 161.167,98.5 159.5,98.5C 159.5,99.5 159.5,100.5 159.5,101.5C 159.5,102.5 159.5,103.5 159.5,104.5C 158.167,104.5 156.833,104.5 155.5,104.5C 155.5,102.5 155.5,100.5 155.5,98.5C 153.5,98.5 151.5,98.5 149.5,98.5C 149.984,101.567 148.818,103.567 146,104.5C 144.968,102.855 143.801,102.522 142.5,103.5C 141.702,103.043 141.369,102.376 141.5,101.5C 143.048,101.179 143.715,100.179 143.5,98.5C 142.325,98.719 141.325,98.3857 140.5,97.5C 144.145,92.356 148.311,87.6894 153,83.5C 158.793,88.6317 164.627,93.6317 170.5,98.5 Z"/></g>
<g><path style="opacity:1" fill="#e9c588" d="M 190.5,76.5 C 190.259,79.999 191.092,80.3323 193,77.5C 193.018,79.7972 192.851,82.1305 192.5,84.5C 191.522,84.811 190.855,85.4777 190.5,86.5C 191.309,88.0709 191.643,89.7376 191.5,91.5C 192.833,91.5 194.167,91.5 195.5,91.5C 195.5,93.1667 195.5,94.8333 195.5,96.5C 191.944,96.2749 191.61,97.1082 194.5,99C 193.813,100.162 193.647,101.328 194,102.5C 195.131,101.396 195.965,101.729 196.5,103.5C 195.053,104.935 193.386,105.935 191.5,106.5C 189.752,107.789 189.419,109.289 190.5,111C 189.552,111.483 188.552,111.649 187.5,111.5C 186.876,103.181 186.543,94.8477 186.5,86.5C 185.5,86.5 184.5,86.5 183.5,86.5C 183.351,85.448 183.517,84.448 184,83.5C 184.654,84.6956 185.154,84.6956 185.5,83.5C 185.376,82.8933 185.043,82.56 184.5,82.5C 183.506,80.6656 183.506,78.9989 184.5,77.5C 185.685,76.2353 186.851,74.2353 188,71.5C 188.335,73.5029 189.168,75.1696 190.5,76.5 Z"/></g>
<g><path style="opacity:0.008" fill="#fcfefc" d="M 237.5,96.5 C 238.833,97.1667 238.833,97.1667 237.5,96.5 Z"/></g>
<g><path style="opacity:0.006" fill="#fdfdfd" d="M 236.5,97.5 C 236.833,97.5 237.167,97.5 237.5,97.5C 237.672,98.4916 237.338,99.1583 236.5,99.5C 236.5,98.8333 236.5,98.1667 236.5,97.5 Z"/></g>
<g><path style="opacity:0.2" fill="#cdc8c4" d="M 64.5,96.5 C 65.9063,96.9731 66.573,97.9731 66.5,99.5C 65.0937,99.0269 64.427,98.0269 64.5,96.5 Z"/></g>
<g><path style="opacity:1" fill="#3e2a0f" d="M 171.5,96.5 C 171.672,97.4916 171.338,98.1583 170.5,98.5C 164.627,93.6317 158.793,88.6317 153,83.5C 148.311,87.6894 144.145,92.356 140.5,97.5C 141.325,98.3857 142.325,98.719 143.5,98.5C 143.715,100.179 143.048,101.179 141.5,101.5C 140.732,102.263 140.232,103.263 140,104.5C 139.423,99.3793 138.423,99.3793 137,104.5C 135.493,103.465 133.993,103.632 132.5,105C 130.019,107.199 127.686,109.366 125.5,111.5C 124.222,111.782 123.222,112.449 122.5,113.5C 122.36,111.876 123.027,110.71 124.5,110C 123.5,109.667 122.5,109.333 121.5,109C 123.555,108.313 125.221,107.146 126.5,105.5C 125.284,104.904 123.951,104.737 122.5,105C 124.618,103.951 126.284,102.451 127.5,100.5C 128.043,100.44 128.376,100.107 128.5,99.5C 126.96,98.4679 126.46,97.1346 127,95.5C 127.924,97.4951 129.09,97.8284 130.5,96.5C 137.524,90.1451 144.857,84.1451 152.5,78.5C 158.854,84.5216 165.187,90.5216 171.5,96.5 Z"/></g>
<g><path style="opacity:1" fill="#504428" d="M 150.5,87.5 C 151.833,87.5 153.167,87.5 154.5,87.5C 154.5,89.1667 154.5,90.8333 154.5,92.5C 152.833,92.5 151.167,92.5 149.5,92.5C 149.366,90.7085 149.699,89.0418 150.5,87.5 Z"/></g>
<g><path style="opacity:0.004" fill="#fdfefd" d="M 235.5,99.5 C 235.833,99.5 236.167,99.5 236.5,99.5C 236.672,100.492 236.338,101.158 235.5,101.5C 235.5,100.833 235.5,100.167 235.5,99.5 Z"/></g>
<g><path style="opacity:1" fill="#e9c486" d="M 125.5,98.5 C 124.839,99.7175 124.172,101.051 123.5,102.5C 121.495,99.9722 119.829,100.305 118.5,103.5C 119.5,104.167 120.5,104.833 121.5,105.5C 120.583,106.971 119.583,108.471 118.5,110C 119.5,110.333 120.5,110.667 121.5,111C 120.167,111.667 120.167,112.333 121.5,113C 119.35,114.192 118.683,115.692 119.5,117.5C 118.178,117.33 117.011,117.663 116,118.5C 115.517,117.552 115.351,116.552 115.5,115.5C 115.666,110.156 115.499,104.823 115,99.5C 113.289,100.581 111.789,100.248 110.5,98.5C 106.338,95.3229 106.838,94.3229 112,95.5C 111.848,93.9239 111.015,92.5905 109.5,91.5C 111.064,89.4249 112.064,87.0916 112.5,84.5C 113.325,83.6143 114.325,83.281 115.5,83.5C 115.655,86.6092 116.322,89.6092 117.5,92.5C 118.167,90.1667 118.833,87.8333 119.5,85.5C 120.415,83.0197 121.915,82.3531 124,83.5C 125.119,86.0571 125.285,88.5571 124.5,91C 125.308,91.3076 125.975,91.8076 126.5,92.5C 125.687,93.8139 124.687,94.9805 123.5,96C 124.756,96.4169 125.423,97.2502 125.5,98.5 Z"/></g>
<g><path style="opacity:1" fill="#534325" d="M 164.5,104.5 C 163.153,103.829 161.986,103.829 161,104.5C 160.768,103.263 160.268,102.263 159.5,101.5C 159.5,100.5 159.5,99.5 159.5,98.5C 161.167,98.5 162.833,98.5 164.5,98.5C 164.5,100.5 164.5,102.5 164.5,104.5 Z"/></g>
<g><path style="opacity:1" fill="#c59f65" d="M 184.5,82.5 C 185.043,82.56 185.376,82.8933 185.5,83.5C 185.154,84.6956 184.654,84.6956 184,83.5C 183.517,84.448 183.351,85.448 183.5,86.5C 184.5,86.5 185.5,86.5 186.5,86.5C 186.543,94.8477 186.876,103.181 187.5,111.5C 188.552,111.649 189.552,111.483 190.5,111C 189.419,109.289 189.752,107.789 191.5,106.5C 193.09,106.628 194.423,107.295 195.5,108.5C 194.04,110.972 192.04,112.639 189.5,113.5C 190.377,116.244 189.377,116.911 186.5,115.5C 186.977,114.522 187.643,113.689 188.5,113C 186.834,110.52 186.001,107.687 186,104.5C 181.958,102.232 180.625,98.8985 182,94.5C 184.988,95.1828 184.822,94.5161 181.5,92.5C 180.227,91.9232 180.227,91.2565 181.5,90.5C 182.396,91.5063 183.062,91.5063 183.5,90.5C 182.833,89.5 182.167,88.5 181.5,87.5C 182.695,86.0325 182.695,84.5325 181.5,83C 181.667,82.5 181.833,82 182,81.5C 182.671,82.2524 183.504,82.5858 184.5,82.5 Z"/></g>
<g><path style="opacity:0.004" fill="#fdfefd" d="M 234.5,101.5 C 234.833,101.5 235.167,101.5 235.5,101.5C 235.672,102.492 235.338,103.158 234.5,103.5C 234.5,102.833 234.5,102.167 234.5,101.5 Z"/></g>
<g><path style="opacity:1" fill="#bf9f6c" d="M 125.5,98.5 C 126.167,99.1667 126.833,99.8333 127.5,100.5C 126.284,102.451 124.618,103.951 122.5,105C 123.951,104.737 125.284,104.904 126.5,105.5C 125.221,107.146 123.555,108.313 121.5,109C 122.5,109.333 123.5,109.667 124.5,110C 123.027,110.71 122.36,111.876 122.5,113.5C 121.167,114.833 121.167,116.167 122.5,117.5C 121.5,117.5 120.5,117.5 119.5,117.5C 118.683,115.692 119.35,114.192 121.5,113C 120.167,112.333 120.167,111.667 121.5,111C 120.5,110.667 119.5,110.333 118.5,110C 119.583,108.471 120.583,106.971 121.5,105.5C 120.5,104.833 119.5,104.167 118.5,103.5C 119.829,100.305 121.495,99.9722 123.5,102.5C 124.172,101.051 124.839,99.7175 125.5,98.5 Z"/></g>
<g><path style="opacity:0.129" fill="#d4d0cc" d="M 67.5,101.5 C 68.1667,101.833 68.8333,102.167 69.5,102.5C 69.5,103.167 69.5,103.833 69.5,104.5C 68.0937,104.027 67.427,103.027 67.5,101.5 Z"/></g>
<g><path style="opacity:1" fill="#9b7441" d="M 181.5,92.5 C 184.822,94.5161 184.988,95.1828 182,94.5C 180.625,98.8985 181.958,102.232 186,104.5C 186.001,107.687 186.834,110.52 188.5,113C 187.643,113.689 186.977,114.522 186.5,115.5C 189.377,116.911 190.377,116.244 189.5,113.5C 193.337,113.912 194.004,115.246 191.5,117.5C 190.167,117.5 188.833,117.5 187.5,117.5C 186.833,117.5 186.167,117.5 185.5,117.5C 184.71,116.206 183.71,115.039 182.5,114C 183.449,113.383 184.282,113.549 185,114.5C 185.667,113.833 185.667,113.167 185,112.5C 182.423,111.729 179.923,110.729 177.5,109.5C 178.376,108.749 179.376,108.249 180.5,108C 179.934,107.005 179.267,106.172 178.5,105.5C 178.047,104.542 177.381,103.708 176.5,103C 178.689,102.323 179.022,101.156 177.5,99.5C 179.582,97.5779 180.916,95.2445 181.5,92.5 Z"/></g>
<g><path style="opacity:0.998" fill="#342208" d="M 232.5,101.5 C 231.89,102.391 231.557,103.391 231.5,104.5C 230.094,104.973 229.427,105.973 229.5,107.5C 228.5,107.833 227.833,108.5 227.5,109.5C 226.153,108.972 224.819,108.805 223.5,109C 218.622,116.712 212.289,122.879 204.5,127.5C 203.573,125.424 201.907,124.257 199.5,124C 200.885,122.035 200.718,120.202 199,118.5C 197.328,121.337 195.161,123.67 192.5,125.5C 191.522,125.023 190.689,124.357 190,123.5C 189.667,126.5 189.333,129.5 189,132.5C 188.824,128.312 188.324,124.312 187.5,120.5C 187.5,119.5 187.5,118.5 187.5,117.5C 188.833,117.5 190.167,117.5 191.5,117.5C 192.789,119.248 194.289,119.581 196,118.5C 196.539,115.471 197.206,112.471 198,109.5C 198.414,109.043 198.914,108.709 199.5,108.5C 200.795,110.328 201.795,112.328 202.5,114.5C 205.509,109.705 207.343,104.372 208,98.5C 209.371,103.07 210.538,107.737 211.5,112.5C 212.274,113.711 213.107,113.711 214,112.5C 214.401,105.023 215.901,104.689 218.5,111.5C 219.192,110.975 219.692,110.308 220,109.5C 220.375,103.411 221.208,97.4109 222.5,91.5C 224,93.9588 224.833,97.2921 225,101.5C 225.414,101.957 225.914,102.291 226.5,102.5C 228.029,98.1232 229.529,93.7899 231,89.5C 232.156,93.4183 232.656,97.4183 232.5,101.5 Z"/></g>
<g><path style="opacity:0.157" fill="#d0cdc8" d="M 232.5,101.5 C 232.833,101.5 233.167,101.5 233.5,101.5C 233.5,102.167 233.5,102.833 233.5,103.5C 232.833,103.5 232.5,103.833 232.5,104.5C 232.167,104.5 231.833,104.5 231.5,104.5C 231.557,103.391 231.89,102.391 232.5,101.5 Z"/></g>
<g><path style="opacity:0.004" fill="#fdfefd" d="M 233.5,103.5 C 233.833,103.5 234.167,103.5 234.5,103.5C 234.315,104.17 233.981,104.17 233.5,103.5 Z"/></g>
<g><path style="opacity:0.004" fill="#fdfefd" d="M 232.5,104.5 C 232.833,104.5 233.167,104.5 233.5,104.5C 233.672,105.492 233.338,106.158 232.5,106.5C 232.5,105.833 232.5,105.167 232.5,104.5 Z"/></g>
<g><path style="opacity:0.161" fill="#cfcdc8" d="M 231.5,104.5 C 231.5,105.167 231.5,105.833 231.5,106.5C 230.833,106.5 230.5,106.833 230.5,107.5C 230.167,107.5 229.833,107.5 229.5,107.5C 229.427,105.973 230.094,104.973 231.5,104.5 Z"/></g>
<g><path style="opacity:0.004" fill="#fdfefd" d="M 231.5,106.5 C 231.833,106.5 232.167,106.5 232.5,106.5C 232.315,107.17 231.981,107.17 231.5,106.5 Z"/></g>
<g><path style="opacity:0.004" fill="#fdfefd" d="M 230.5,107.5 C 230.833,107.5 231.167,107.5 231.5,107.5C 231.672,108.492 231.338,109.158 230.5,109.5C 230.5,108.833 230.5,108.167 230.5,107.5 Z"/></g>
<g><path style="opacity:1" fill="#d0a468" d="M 110.5,98.5 C 111.789,100.248 113.289,100.581 115,99.5C 115.499,104.823 115.666,110.156 115.5,115.5C 112.023,112.325 110.356,108.325 110.5,103.5C 109.5,103.5 108.5,103.5 107.5,103.5C 106.427,102.749 106.26,101.749 107,100.5C 108,99.1667 109,99.1667 110,100.5C 110.464,99.9056 110.631,99.2389 110.5,98.5 Z"/></g>
<g><path style="opacity:1" fill="#36210a" d="M 164.5,105.5 C 167.303,105.961 169.637,107.295 171.5,109.5C 157.673,110.661 143.673,110.827 129.5,110C 130.984,108.426 132.651,107.093 134.5,106C 140.833,105.667 147.167,105.333 153.5,105C 149.696,103.506 150.029,102.672 154.5,102.5C 154.5,103.5 154.5,104.5 154.5,105.5C 157.833,105.5 161.167,105.5 164.5,105.5 Z"/></g>
<g><path style="opacity:0.031" fill="#dbd8d5" d="M 229.5,107.5 C 229.5,108.167 229.5,108.833 229.5,109.5C 228.833,109.5 228.5,109.833 228.5,110.5C 228.167,110.5 227.833,110.5 227.5,110.5C 227.5,110.167 227.5,109.833 227.5,109.5C 227.833,108.5 228.5,107.833 229.5,107.5 Z"/></g>
<g><path style="opacity:0.071" fill="#c8c2be" d="M 72.5,108.5 C 73.9063,108.973 74.573,109.973 74.5,111.5C 73.0937,111.027 72.427,110.027 72.5,108.5 Z"/></g>
<g><path style="opacity:0.004" fill="#fdfefd" d="M 229.5,109.5 C 229.833,109.5 230.167,109.5 230.5,109.5C 230.315,110.17 229.981,110.17 229.5,109.5 Z"/></g>
<g><path style="opacity:1" fill="#84663a" d="M 159.5,101.5 C 160.268,102.263 160.768,103.263 161,104.5C 161.986,103.829 163.153,103.829 164.5,104.5C 164.5,104.833 164.5,105.167 164.5,105.5C 161.167,105.5 157.833,105.5 154.5,105.5C 154.5,104.5 154.5,103.5 154.5,102.5C 150.029,102.672 149.696,103.506 153.5,105C 147.167,105.333 140.833,105.667 134.5,106C 132.651,107.093 130.984,108.426 129.5,110C 143.673,110.827 157.673,110.661 171.5,109.5C 172.652,110.625 173.652,110.625 174.5,109.5C 175.043,109.56 175.376,109.893 175.5,110.5C 173.669,114.241 173.003,118.241 173.5,122.5C 173.167,122.5 172.833,122.5 172.5,122.5C 172.5,119.5 172.5,116.5 172.5,113.5C 163.167,113.5 153.833,113.5 144.5,113.5C 141.67,112.063 139.003,112.396 136.5,114.5C 133.713,113.523 130.713,113.19 127.5,113.5C 127.5,112.167 126.833,111.5 125.5,111.5C 127.686,109.366 130.019,107.199 132.5,105C 133.993,103.632 135.493,103.465 137,104.5C 138.423,99.3793 139.423,99.3793 140,104.5C 140.232,103.263 140.732,102.263 141.5,101.5C 141.369,102.376 141.702,103.043 142.5,103.5C 143.801,102.522 144.968,102.855 146,104.5C 148.818,103.567 149.984,101.567 149.5,98.5C 151.5,98.5 153.5,98.5 155.5,98.5C 155.5,100.5 155.5,102.5 155.5,104.5C 156.833,104.5 158.167,104.5 159.5,104.5C 159.5,103.5 159.5,102.5 159.5,101.5 Z"/></g>
<g><path style="opacity:1" fill="#3a2a1a" d="M 150.5,99.5 C 151.978,99.238 153.311,99.5713 154.5,100.5C 153.833,100.833 153.167,101.167 152.5,101.5C 151.287,101.253 150.62,100.586 150.5,99.5 Z"/></g>
<g><path style="opacity:0.008" fill="#fcfdfc" d="M 228.5,110.5 C 228.833,110.5 229.167,110.5 229.5,110.5C 229.315,111.17 228.981,111.17 228.5,110.5 Z"/></g>
<g><path style="opacity:0.008" fill="#fdfdfc" d="M 227.5,111.5 C 227.833,111.5 228.167,111.5 228.5,111.5C 228.315,112.17 227.981,112.17 227.5,111.5 Z"/></g>
<g><path style="opacity:1" fill="#906e43" d="M 107.5,103.5 C 108.5,103.5 109.5,103.5 110.5,103.5C 110.356,108.325 112.023,112.325 115.5,115.5C 115.351,116.552 115.517,117.552 116,118.5C 117.011,117.663 118.178,117.33 119.5,117.5C 120.5,117.5 121.5,117.5 122.5,117.5C 121.048,118.302 119.382,118.802 117.5,119C 120.066,120.626 119.899,122.126 117,123.5C 116.821,126.553 116.321,129.553 115.5,132.5C 114.508,128.217 114.174,123.884 114.5,119.5C 114.389,118.883 114.056,118.383 113.5,118C 111.1,117.814 108.766,117.314 106.5,116.5C 107.025,115.808 107.692,115.308 108.5,115C 107.584,114.722 106.918,114.222 106.5,113.5C 106.756,111.208 106.423,109.041 105.5,107C 109.33,106.724 109.996,105.558 107.5,103.5 Z"/></g>
<g><path style="opacity:1" fill="#584634" d="M 227.5,109.5 C 227.5,109.833 227.5,110.167 227.5,110.5C 227.5,110.833 227.5,111.167 227.5,111.5C 226.833,111.5 226.5,111.833 226.5,112.5C 225.833,112.5 225.5,112.833 225.5,113.5C 224.662,113.842 224.328,114.508 224.5,115.5C 223.833,115.5 223.5,115.833 223.5,116.5C 222.833,116.5 222.5,116.833 222.5,117.5C 221.833,117.5 221.5,117.833 221.5,118.5C 220.833,118.5 220.5,118.833 220.5,119.5C 219.833,119.5 219.5,119.833 219.5,120.5C 218.833,120.5 218.5,120.833 218.5,121.5C 217.833,121.5 217.5,121.833 217.5,122.5C 216.833,122.5 216.5,122.833 216.5,123.5C 216.167,123.5 215.833,123.5 215.5,123.5C 213.973,123.427 212.973,124.094 212.5,125.5C 212.5,125.833 212.5,126.167 212.5,126.5C 211.833,126.5 211.5,126.833 211.5,127.5C 210.833,127.5 210.5,127.833 210.5,128.5C 209.833,128.5 209.5,128.833 209.5,129.5C 208.833,129.5 208.5,129.833 208.5,130.5C 207.508,130.328 206.842,130.662 206.5,131.5C 205.833,131.5 205.5,131.833 205.5,132.5C 204.833,132.5 204.167,132.5 203.5,132.5C 203.158,131.662 202.492,131.328 201.5,131.5C 201.5,131.167 201.5,130.833 201.5,130.5C 202.306,129.272 203.306,128.272 204.5,127.5C 212.289,122.879 218.622,116.712 223.5,109C 224.819,108.805 226.153,108.972 227.5,109.5 Z"/></g>
<g><path style="opacity:0.005" fill="#fdfdfd" d="M 226.5,112.5 C 226.833,112.5 227.167,112.5 227.5,112.5C 227.573,114.027 226.906,115.027 225.5,115.5C 225.5,114.833 225.5,114.167 225.5,113.5C 226.167,113.5 226.5,113.167 226.5,112.5 Z"/></g>
<g><path style="opacity:0.161" fill="#d2cdca" d="M 75.5,112.5 C 76.9063,112.973 77.573,113.973 77.5,115.5C 76.0937,115.027 75.427,114.027 75.5,112.5 Z"/></g>
<g><path style="opacity:1" fill="#4e3724" d="M 89.5,122.5 C 89.0618,122.435 88.7284,122.601 88.5,123C 93.4755,127.487 98.8089,131.487 104.5,135C 103.181,135.195 101.847,135.028 100.5,134.5C 99.8333,134.5 99.1667,134.5 98.5,134.5C 98.5,134.167 98.5,133.833 98.5,133.5C 98.0269,132.094 97.0269,131.427 95.5,131.5C 94.7377,129.738 93.4044,128.738 91.5,128.5C 90.5,128.167 89.8333,127.5 89.5,126.5C 88.4154,124.413 86.7488,123.08 84.5,122.5C 84.1667,121.5 83.5,120.833 82.5,120.5C 81.8333,120.167 81.1667,119.833 80.5,119.5C 80.5,118.833 80.1667,118.5 79.5,118.5C 78.8333,117.5 78.1667,116.5 77.5,115.5C 77.573,113.973 76.9063,112.973 75.5,112.5C 74.8333,112.5 74.5,112.167 74.5,111.5C 74.573,109.973 73.9063,108.973 72.5,108.5C 70.7376,107.738 69.7376,106.404 69.5,104.5C 69.5,103.833 69.5,103.167 69.5,102.5C 69.56,101.957 69.8933,101.624 70.5,101.5C 71.4519,103.045 71.7852,104.712 71.5,106.5C 72.8734,106.343 74.2068,106.51 75.5,107C 79.8327,112.523 84.4994,117.69 89.5,122.5 Z"/></g>
<g><path style="opacity:1" fill="#e2b87d" d="M 144.5,113.5 C 153.833,113.5 163.167,113.5 172.5,113.5C 172.5,116.5 172.5,119.5 172.5,122.5C 170.585,122.784 168.919,122.451 167.5,121.5C 167.5,119.167 167.5,116.833 167.5,114.5C 162.094,113.735 160.094,116.069 161.5,121.5C 163.167,121.5 164.833,121.5 166.5,121.5C 163.038,122.482 159.371,122.815 155.5,122.5C 155.802,119.941 155.468,117.607 154.5,115.5C 152.833,115.5 151.167,115.5 149.5,115.5C 149.5,117.5 149.5,119.5 149.5,121.5C 148.081,122.451 146.415,122.784 144.5,122.5C 144.5,119.5 144.5,116.5 144.5,113.5 Z"/></g>
<g><path style="opacity:0.008" fill="#fcfdfc" d="M 224.5,115.5 C 224.833,115.5 225.167,115.5 225.5,115.5C 225.315,116.17 224.981,116.17 224.5,115.5 Z"/></g>
<g><path style="opacity:0.008" fill="#fcfdfc" d="M 223.5,116.5 C 223.833,116.5 224.167,116.5 224.5,116.5C 224.315,117.17 223.981,117.17 223.5,116.5 Z"/></g>
<g><path style="opacity:0.008" fill="#fdfdfc" d="M 222.5,117.5 C 222.833,117.5 223.167,117.5 223.5,117.5C 223.315,118.17 222.981,118.17 222.5,117.5 Z"/></g>
<g><path style="opacity:0.005" fill="#fdfdfd" d="M 79.5,118.5 C 80.1667,118.5 80.5,118.833 80.5,119.5C 80.2533,121.975 79.5866,121.975 78.5,119.5C 78.6236,118.893 78.9569,118.56 79.5,118.5 Z"/></g>
<g><path style="opacity:1" fill="#3d270d" d="M 144.5,113.5 C 143.527,115.948 143.194,118.615 143.5,121.5C 140.833,121.5 138.167,121.5 135.5,121.5C 134.5,121.5 133.5,121.5 132.5,121.5C 132.5,119.5 132.5,117.5 132.5,115.5C 133.959,115.567 135.292,115.234 136.5,114.5C 139.003,112.396 141.67,112.063 144.5,113.5 Z"/></g>
<g><path style="opacity:1" fill="#5e4828" d="M 167.5,121.5 C 167.167,121.5 166.833,121.5 166.5,121.5C 164.833,121.5 163.167,121.5 161.5,121.5C 160.094,116.069 162.094,113.735 167.5,114.5C 167.5,116.833 167.5,119.167 167.5,121.5 Z"/></g>
<g><path style="opacity:0.008" fill="#fcfdfc" d="M 221.5,118.5 C 221.833,118.5 222.167,118.5 222.5,118.5C 222.315,119.17 221.981,119.17 221.5,118.5 Z"/></g>
<g><path style="opacity:0.012" fill="#fbfcfb" d="M 220.5,119.5 C 220.833,119.5 221.167,119.5 221.5,119.5C 221.315,120.17 220.981,120.17 220.5,119.5 Z"/></g>
<g><path style="opacity:0.012" fill="#fbfcfb" d="M 219.5,120.5 C 219.833,120.5 220.167,120.5 220.5,120.5C 220.315,121.17 219.981,121.17 219.5,120.5 Z"/></g>
<g><path style="opacity:0.005" fill="#eae8e7" d="M 82.5,120.5 C 83.5,120.833 84.1667,121.5 84.5,122.5C 83.1667,122.833 83.1667,123.167 84.5,123.5C 83.5029,124.713 82.5029,124.546 81.5,123C 82.2524,122.329 82.5858,121.496 82.5,120.5 Z"/></g>
<g><path style="opacity:1" fill="#cea973" d="M 127.5,113.5 C 130.713,113.19 133.713,113.523 136.5,114.5C 135.292,115.234 133.959,115.567 132.5,115.5C 132.5,117.5 132.5,119.5 132.5,121.5C 133.5,121.5 134.5,121.5 135.5,121.5C 133.393,122.468 131.059,122.802 128.5,122.5C 128.167,122.5 127.833,122.5 127.5,122.5C 127.5,119.5 127.5,116.5 127.5,113.5 Z"/></g>
<g><path style="opacity:1" fill="#352109" d="M 178.5,105.5 C 179.267,106.172 179.934,107.005 180.5,108C 179.376,108.249 178.376,108.749 177.5,109.5C 179.923,110.729 182.423,111.729 185,112.5C 185.667,113.167 185.667,113.833 185,114.5C 184.282,113.549 183.449,113.383 182.5,114C 183.71,115.039 184.71,116.206 185.5,117.5C 185.611,118.117 185.944,118.617 186.5,119C 185.376,119.249 184.376,119.749 183.5,120.5C 183.624,121.107 183.957,121.44 184.5,121.5C 184.665,125.182 184.499,128.848 184,132.5C 183.667,131.5 183.333,130.5 183,129.5C 182.433,132.168 181.933,134.834 181.5,137.5C 176.751,138.765 172.084,139.265 167.5,139C 166.085,141.792 163.751,143.292 160.5,143.5C 160.531,138.604 158.364,134.604 154,131.5C 151.358,133.059 149.025,132.725 147,130.5C 145.847,132.497 144.347,132.83 142.5,131.5C 143.376,130.749 144.376,130.249 145.5,130C 140.167,129.667 134.833,129.333 129.5,129C 144.672,128.831 159.672,128.331 174.5,127.5C 175.043,127.44 175.376,127.107 175.5,126.5C 174.624,125.749 173.624,125.249 172.5,125C 173.252,124.329 173.586,123.496 173.5,122.5C 173.003,118.241 173.669,114.241 175.5,110.5C 175.376,109.893 175.043,109.56 174.5,109.5C 173.833,109.5 173.5,109.167 173.5,108.5C 175.728,108.223 177.395,107.223 178.5,105.5 Z"/></g>
<g><path style="opacity:0.008" fill="#fcfdfc" d="M 218.5,121.5 C 218.833,121.5 219.167,121.5 219.5,121.5C 219.315,122.17 218.981,122.17 218.5,121.5 Z"/></g>
<g><path style="opacity:0.851" fill="#a1948b" d="M 84.5,123.5 C 84.5,123.167 84.5,122.833 84.5,122.5C 86.7488,123.08 88.4154,124.413 89.5,126.5C 87.5887,125.925 85.922,124.925 84.5,123.5 Z"/></g>
<g><path style="opacity:1" fill="#936e3f" d="M 98.5,117.5 C 102.681,119.005 106.014,121.672 108.5,125.5C 107.609,126.59 106.609,126.59 105.5,125.5C 102.358,123.37 100.025,120.703 98.5,117.5 Z"/></g>
<g><path style="opacity:1" fill="#906b39" d="M 144.5,113.5 C 144.5,116.5 144.5,119.5 144.5,122.5C 146.415,122.784 148.081,122.451 149.5,121.5C 151.167,121.5 152.833,121.5 154.5,121.5C 154.5,119.5 154.5,117.5 154.5,115.5C 155.468,117.607 155.802,119.941 155.5,122.5C 159.371,122.815 163.038,122.482 166.5,121.5C 166.833,121.5 167.167,121.5 167.5,121.5C 168.919,122.451 170.585,122.784 172.5,122.5C 157.833,123.833 143.167,123.833 128.5,122.5C 131.059,122.802 133.393,122.468 135.5,121.5C 138.167,121.5 140.833,121.5 143.5,121.5C 143.194,118.615 143.527,115.948 144.5,113.5 Z"/></g>
<g><path style="opacity:1" fill="#4f3c22" d="M 154.5,115.5 C 154.5,117.5 154.5,119.5 154.5,121.5C 152.833,121.5 151.167,121.5 149.5,121.5C 149.5,119.5 149.5,117.5 149.5,115.5C 151.167,115.5 152.833,115.5 154.5,115.5 Z"/></g>
<g><path style="opacity:0.008" fill="#fdfdfc" d="M 217.5,122.5 C 217.833,122.5 218.167,122.5 218.5,122.5C 218.315,123.17 217.981,123.17 217.5,122.5 Z"/></g>
<g><path style="opacity:0.008" fill="#fcfdfc" d="M 216.5,123.5 C 216.833,123.5 217.167,123.5 217.5,123.5C 217.315,124.17 216.981,124.17 216.5,123.5 Z"/></g>
<g><path style="opacity:0.024" fill="#d5d3cf" d="M 215.5,123.5 C 215.5,123.833 215.5,124.167 215.5,124.5C 214.833,124.5 214.5,124.833 214.5,125.5C 213.833,125.5 213.167,125.5 212.5,125.5C 212.973,124.094 213.973,123.427 215.5,123.5 Z"/></g>
<g><path style="opacity:0.008" fill="#fcfdfc" d="M 215.5,124.5 C 215.833,124.5 216.167,124.5 216.5,124.5C 216.315,125.17 215.981,125.17 215.5,124.5 Z"/></g>
<g><path style="opacity:1" fill="#5c3e1c" d="M 127.5,122.5 C 127.833,122.5 128.167,122.5 128.5,122.5C 143.167,123.833 157.833,123.833 172.5,122.5C 172.833,122.5 173.167,122.5 173.5,122.5C 173.586,123.496 173.252,124.329 172.5,125C 173.624,125.249 174.624,125.749 175.5,126.5C 175.376,127.107 175.043,127.44 174.5,127.5C 158.167,127.5 141.833,127.5 125.5,127.5C 125.365,125.446 126.032,123.779 127.5,122.5 Z"/></g>
<g><path style="opacity:0.004" fill="#fdfefd" d="M 214.5,125.5 C 214.833,125.5 215.167,125.5 215.5,125.5C 215.315,126.17 214.981,126.17 214.5,125.5 Z"/></g>
<g><path style="opacity:1" fill="#6d5638" d="M 185.5,117.5 C 186.167,117.5 186.833,117.5 187.5,117.5C 187.5,118.5 187.5,119.5 187.5,120.5C 187.824,124.555 187.491,128.555 186.5,132.5C 185.833,128.687 185.166,125.021 184.5,121.5C 183.957,121.44 183.624,121.107 183.5,120.5C 184.376,119.749 185.376,119.249 186.5,119C 185.944,118.617 185.611,118.117 185.5,117.5 Z"/></g>
<g><path style="opacity:0.005" fill="#fdfdfd" d="M 212.5,126.5 C 213.167,126.5 213.833,126.5 214.5,126.5C 213.738,128.262 212.404,129.262 210.5,129.5C 210.5,129.167 210.5,128.833 210.5,128.5C 211.167,128.5 211.5,128.167 211.5,127.5C 212.167,127.5 212.5,127.167 212.5,126.5 Z"/></g>
<g><path style="opacity:0.722" fill="#998e86" d="M 91.5,128.5 C 93.4044,128.738 94.7377,129.738 95.5,131.5C 93.5956,131.262 92.2623,130.262 91.5,128.5 Z"/></g>
<g><path style="opacity:0.012" fill="#fbfcfb" d="M 209.5,129.5 C 209.833,129.5 210.167,129.5 210.5,129.5C 210.315,130.17 209.981,130.17 209.5,129.5 Z"/></g>
<g><path style="opacity:0.012" fill="#fcfdfc" d="M 208.5,130.5 C 208.833,130.5 209.167,130.5 209.5,130.5C 209.315,131.17 208.981,131.17 208.5,130.5 Z"/></g>
<g><path style="opacity:1" fill="#321f09" d="M 125.5,111.5 C 126.833,111.5 127.5,112.167 127.5,113.5C 127.5,116.5 127.5,119.5 127.5,122.5C 126.032,123.779 125.365,125.446 125.5,127.5C 128.309,129.161 131.142,130.827 134,132.5C 135.444,130.845 137.278,130.178 139.5,130.5C 139.5,131.5 139.5,132.5 139.5,133.5C 143.456,134.053 143.456,134.886 139.5,136C 139.952,137.612 141.285,138.612 143.5,139C 143.167,139.333 142.833,139.667 142.5,140C 143.899,140.595 145.232,140.428 146.5,139.5C 147.308,139.808 147.975,140.308 148.5,141C 145.578,142.603 142.578,143.77 139.5,144.5C 128.313,143.41 117.979,140.077 108.5,134.5C 109.688,133.636 110.855,132.636 112,131.5C 112.333,131.833 112.667,132.167 113,132.5C 113.175,127.981 113.675,123.647 114.5,119.5C 114.174,123.884 114.508,128.217 115.5,132.5C 116.321,129.553 116.821,126.553 117,123.5C 119.899,122.126 120.066,120.626 117.5,119C 119.382,118.802 121.048,118.302 122.5,117.5C 121.167,116.167 121.167,114.833 122.5,113.5C 123.222,112.449 124.222,111.782 125.5,111.5 Z"/></g>
<g><path style="opacity:1" fill="#2e1b04" d="M 204.5,127.5 C 203.306,128.272 202.306,129.272 201.5,130.5C 182.438,141.958 161.772,146.625 139.5,144.5C 142.578,143.77 145.578,142.603 148.5,141C 147.975,140.308 147.308,139.808 146.5,139.5C 145.232,140.428 143.899,140.595 142.5,140C 142.833,139.667 143.167,139.333 143.5,139C 141.285,138.612 139.952,137.612 139.5,136C 143.456,134.886 143.456,134.053 139.5,133.5C 139.5,132.5 139.5,131.5 139.5,130.5C 137.278,130.178 135.444,130.845 134,132.5C 131.142,130.827 128.309,129.161 125.5,127.5C 141.833,127.5 158.167,127.5 174.5,127.5C 159.672,128.331 144.672,128.831 129.5,129C 134.833,129.333 140.167,129.667 145.5,130C 144.376,130.249 143.376,130.749 142.5,131.5C 144.347,132.83 145.847,132.497 147,130.5C 149.025,132.725 151.358,133.059 154,131.5C 158.364,134.604 160.531,138.604 160.5,143.5C 163.751,143.292 166.085,141.792 167.5,139C 172.084,139.265 176.751,138.765 181.5,137.5C 181.933,134.834 182.433,132.168 183,129.5C 183.333,130.5 183.667,131.5 184,132.5C 184.499,128.848 184.665,125.182 184.5,121.5C 185.166,125.021 185.833,128.687 186.5,132.5C 187.491,128.555 187.824,124.555 187.5,120.5C 188.324,124.312 188.824,128.312 189,132.5C 189.333,129.5 189.667,126.5 190,123.5C 190.689,124.357 191.522,125.023 192.5,125.5C 195.161,123.67 197.328,121.337 199,118.5C 200.718,120.202 200.885,122.035 199.5,124C 201.907,124.257 203.573,125.424 204.5,127.5 Z"/></g>
<g><path style="opacity:0.004" fill="#fdfefd" d="M 206.5,132.5 C 206.5,132.167 206.5,131.833 206.5,131.5C 207.167,131.5 207.833,131.5 208.5,131.5C 208.158,132.338 207.492,132.672 206.5,132.5 Z"/></g>
<g><path style="opacity:0.475" fill="#b0a7a0" d="M 95.5,131.5 C 97.0269,131.427 98.0269,132.094 98.5,133.5C 96.9731,133.573 95.9731,132.906 95.5,131.5 Z"/></g>
<g><path style="opacity:0.012" fill="#fbfcfb" d="M 205.5,132.5 C 205.833,132.5 206.167,132.5 206.5,132.5C 206.315,133.17 205.981,133.17 205.5,132.5 Z"/></g>
<g><path style="opacity:0.008" fill="#fdfdfd" d="M 203.5,134.5 C 203.5,134.167 203.5,133.833 203.5,133.5C 204.167,133.5 204.833,133.5 205.5,133.5C 205.158,134.338 204.492,134.672 203.5,134.5 Z"/></g>
<g><path style="opacity:0.006" fill="#fdfdfd" d="M 98.5,134.5 C 98.5,134.833 98.5,135.167 98.5,135.5C 95.8333,135.167 95.8333,134.833 98.5,134.5 Z"/></g>
<g><path style="opacity:0.012" fill="#fbfcfb" d="M 202.5,134.5 C 202.833,134.5 203.167,134.5 203.5,134.5C 203.315,135.17 202.981,135.17 202.5,134.5 Z"/></g>
<g><path style="opacity:0.012" fill="#fcfdfc" d="M 98.5,135.5 C 99.8333,136.167 99.8333,136.167 98.5,135.5 Z"/></g>
<g><path style="opacity:0.29" fill="#c3c0ba" d="M 200.5,134.5 C 200.5,134.833 200.5,135.167 200.5,135.5C 199.833,135.5 199.5,135.833 199.5,136.5C 198.508,136.328 197.842,136.662 197.5,137.5C 196.833,137.5 196.167,137.5 195.5,137.5C 196.659,135.75 198.326,134.75 200.5,134.5 Z"/></g>
<g><path style="opacity:0.008" fill="#fcfdfc" d="M 200.5,136.5 C 200.5,136.167 200.5,135.833 200.5,135.5C 201.167,135.5 201.833,135.5 202.5,135.5C 202.158,136.338 201.492,136.672 200.5,136.5 Z"/></g>
<g><path style="opacity:0.012" fill="#fcfcfb" d="M 199.5,136.5 C 199.833,136.5 200.167,136.5 200.5,136.5C 200.315,137.17 199.981,137.17 199.5,136.5 Z"/></g>
<g><path style="opacity:0.008" fill="#fcfcfc" d="M 197.5,137.5 C 198.167,137.5 198.833,137.5 199.5,137.5C 198.833,138.833 198.167,138.833 197.5,137.5 Z"/></g>
<g><path style="opacity:0.012" fill="#fbfcfb" d="M 195.5,138.5 C 196.833,139.167 196.833,139.167 195.5,138.5 Z"/></g>
<g><path style="opacity:0.035" fill="#d8d5d1" d="M 193.5,138.5 C 193.5,138.833 193.5,139.167 193.5,139.5C 192.508,139.328 191.842,139.662 191.5,140.5C 190.833,140.5 190.167,140.5 189.5,140.5C 190.287,138.896 191.62,138.229 193.5,138.5 Z"/></g>
<g><path style="opacity:0.008" fill="#fcfcfc" d="M 193.5,139.5 C 194.167,139.5 194.833,139.5 195.5,139.5C 194.833,140.833 194.167,140.833 193.5,139.5 Z"/></g>
<g><path style="opacity:0.988" fill="#4b372a" d="M 201.5,131.5 C 202.492,131.328 203.158,131.662 203.5,132.5C 203.5,132.833 203.5,133.167 203.5,133.5C 202.833,133.5 202.5,133.833 202.5,134.5C 201.833,134.5 201.167,134.5 200.5,134.5C 198.326,134.75 196.659,135.75 195.5,137.5C 195.5,137.833 195.5,138.167 195.5,138.5C 194.833,138.5 194.167,138.5 193.5,138.5C 191.62,138.229 190.287,138.896 189.5,140.5C 188.833,140.5 188.5,140.833 188.5,141.5C 187.508,141.328 186.842,141.662 186.5,142.5C 185.508,142.328 184.842,142.662 184.5,143.5C 183.5,143.5 182.5,143.5 181.5,143.5C 179.102,143.259 177.102,143.926 175.5,145.5C 172.14,145.616 168.807,145.949 165.5,146.5C 164.761,146.631 164.094,146.464 163.5,146C 177.203,143.639 189.869,138.806 201.5,131.5 Z"/></g>
<g><path style="opacity:0.012" fill="#fbfcfb" d="M 191.5,140.5 C 192.833,141.167 192.833,141.167 191.5,140.5 Z"/></g>
<g><path style="opacity:0.008" fill="#fcfdfc" d="M 111.5,141.5 C 111.103,142.525 110.437,142.692 109.5,142C 110.094,141.536 110.761,141.369 111.5,141.5 Z"/></g>
<g><path style="opacity:0.007" fill="#fdfdfd" d="M 188.5,142.5 C 188.5,142.167 188.5,141.833 188.5,141.5C 189.5,141.5 190.5,141.5 191.5,141.5C 190.791,142.404 189.791,142.737 188.5,142.5 Z"/></g>
<g><path style="opacity:1" fill="#381f10" d="M 134.5,146.5 C 130.538,145.624 126.538,144.958 122.5,144.5C 122.167,144.5 121.833,144.5 121.5,144.5C 120.22,143.069 118.553,142.402 116.5,142.5C 115.15,141.35 115.316,140.683 117,140.5C 124.009,142.947 131.176,144.781 138.5,146C 137.207,146.49 135.873,146.657 134.5,146.5 Z"/></g>
<g><path style="opacity:0.01" fill="#fcfdfc" d="M 186.5,143.5 C 186.5,143.167 186.5,142.833 186.5,142.5C 187.167,142.5 187.833,142.5 188.5,142.5C 188.158,143.338 187.492,143.672 186.5,143.5 Z"/></g>
<g><path style="opacity:0.098" fill="#d8d5d2" d="M 116.5,142.5 C 118.553,142.402 120.22,143.069 121.5,144.5C 119.447,144.598 117.78,143.931 116.5,142.5 Z"/></g>
<g><path style="opacity:0.01" fill="#fdfdfc" d="M 184.5,144.5 C 184.5,144.167 184.5,143.833 184.5,143.5C 185.167,143.5 185.833,143.5 186.5,143.5C 186.158,144.338 185.492,144.672 184.5,144.5 Z"/></g>
<g><path style="opacity:0.996" fill="#61462a" d="M 89.5,122.5 C 95.3171,127.317 101.65,131.317 108.5,134.5C 117.979,140.077 128.313,143.41 139.5,144.5C 161.772,146.625 182.438,141.958 201.5,130.5C 201.5,130.833 201.5,131.167 201.5,131.5C 189.869,138.806 177.203,143.639 163.5,146C 164.094,146.464 164.761,146.631 165.5,146.5C 155.347,147.494 145.014,147.828 134.5,147.5C 134.5,147.167 134.5,146.833 134.5,146.5C 135.873,146.657 137.207,146.49 138.5,146C 131.176,144.781 124.009,142.947 117,140.5C 115.316,140.683 115.15,141.35 116.5,142.5C 114.784,142.371 113.117,142.038 111.5,141.5C 107.664,139.416 103.997,137.083 100.5,134.5C 101.847,135.028 103.181,135.195 104.5,135C 98.8089,131.487 93.4755,127.487 88.5,123C 88.7284,122.601 89.0618,122.435 89.5,122.5 Z"/></g>
<g><path style="opacity:0.271" fill="#bfb9b4" d="M 181.5,143.5 C 181.5,143.833 181.5,144.167 181.5,144.5C 180.209,144.263 179.209,144.596 178.5,145.5C 177.5,145.5 176.5,145.5 175.5,145.5C 177.102,143.926 179.102,143.259 181.5,143.5 Z"/></g>
<g><path style="opacity:0.007" fill="#fdfdfd" d="M 181.5,145.5 C 181.5,145.167 181.5,144.833 181.5,144.5C 182.5,144.5 183.5,144.5 184.5,144.5C 183.791,145.404 182.791,145.737 181.5,145.5 Z"/></g>
<g><path style="opacity:0.678" fill="#a69c94" d="M 122.5,144.5 C 126.538,144.958 130.538,145.624 134.5,146.5C 134.5,146.833 134.5,147.167 134.5,147.5C 130.163,147.416 126.163,146.416 122.5,144.5 Z"/></g>
<g><path style="opacity:0.007" fill="#fdfdfd" d="M 178.5,146.5 C 178.5,146.167 178.5,145.833 178.5,145.5C 179.5,145.5 180.5,145.5 181.5,145.5C 180.791,146.404 179.791,146.737 178.5,146.5 Z"/></g>
<g><path style="opacity:0.243" fill="#bfb6b0" d="M 175.5,145.5 C 175.5,145.833 175.5,146.167 175.5,146.5C 173.585,146.216 171.919,146.549 170.5,147.5C 168.901,147.232 167.568,147.566 166.5,148.5C 162.958,148.187 159.625,148.521 156.5,149.5C 148.953,149.594 141.62,148.928 134.5,147.5C 145.014,147.828 155.347,147.494 165.5,146.5C 168.807,145.949 172.14,145.616 175.5,145.5 Z"/></g>
<g><path style="opacity:0.008" fill="#fdfdfc" d="M 175.5,147.5 C 175.5,147.167 175.5,146.833 175.5,146.5C 176.5,146.5 177.5,146.5 178.5,146.5C 177.791,147.404 176.791,147.737 175.5,147.5 Z"/></g>
<g><path style="opacity:0.006" fill="#fdfdfd" d="M 170.5,148.5 C 170.5,148.167 170.5,147.833 170.5,147.5C 172.167,147.5 173.833,147.5 175.5,147.5C 174.081,148.451 172.415,148.784 170.5,148.5 Z"/></g>
<g><path style="opacity:0.009" fill="#fdfcfc" d="M 166.5,149.5 C 166.5,149.167 166.5,148.833 166.5,148.5C 167.833,148.5 169.167,148.5 170.5,148.5C 169.432,149.434 168.099,149.768 166.5,149.5 Z"/></g>
<g><path style="opacity:0.008" fill="#fdfdfc" d="M 156.5,150.5 C 156.5,150.167 156.5,149.833 156.5,149.5C 159.833,149.5 163.167,149.5 166.5,149.5C 163.375,150.479 160.042,150.813 156.5,150.5 Z"/></g>
<g><path style="opacity:0.005" fill="#fefefe" d="M 156.5,150.5 C 152.689,151.645 148.689,151.812 144.5,151C 148.486,150.501 152.486,150.334 156.5,150.5 Z"/></g>
</svg>
